<svg width="40" height="40" viewBox="0 0 40 40" fill="none" xmlns="http://www.w3.org/2000/svg">
<path d="M20.0083 0C8.97553 0 0 8.97553 0 20.0083C0 31.0411 8.97553 40 20.0083 40C31.0411 40 40 31.0245 40 20.0083C40 8.99212 31.0245 0 20.0083 0ZM20.0083 37.4782C10.3691 37.4782 2.53837 29.6474 2.53837 20.0083C2.53837 10.3691 10.3691 2.53837 20.0083 2.53837C29.6474 2.53837 37.4782 10.3691 37.4782 20.0083C37.4782 29.6309 29.6309 37.4782 20.0083 37.4782Z" fill="#A4A4A4"/>
<path d="M29.6973 18.7308H21.2693V10.3028C21.2693 9.60595 20.7052 9.04187 20.0084 9.04187C19.3116 9.04187 18.7475 9.60595 18.7475 10.3028V18.7308H10.3029C9.60607 18.7308 9.04199 19.2949 9.04199 19.9917C9.04199 20.6885 9.60607 21.2526 10.3029 21.2526H18.7309V29.6806C18.7309 30.3774 19.295 30.9415 19.9918 30.9415C20.6886 30.9415 21.2527 30.3774 21.2527 29.6806V21.2526H29.6807C30.3775 21.2526 30.9416 20.6885 30.9416 19.9917C30.9582 19.2949 30.3941 18.7308 29.6973 18.7308Z" fill="#A4A4A4"/>
</svg>
