<svg width="24" height="25" viewBox="0 0 24 25" fill="none" xmlns="http://www.w3.org/2000/svg">
<path d="M23.13 19.77L20.28 14.71V9.57C20.28 4.29 16.2 0 11.18 0C6.16 0 2.08 4.29 2.08 9.57V15.2L0 19.77H6.68C6.84 22.3 8.94 24.3 11.5 24.3C14.06 24.3 16.16 22.29 16.32 19.77H23.13ZM3.63 15.53V9.57C3.63 5.15 7.02 1.56 11.18 1.56C15.34 1.56 18.73 5.16 18.73 9.57V15.12L20.47 18.22H2.41L3.63 15.53ZM11.5 22.75C9.79 22.75 8.39 21.44 8.23 19.77H14.77C14.62 21.44 13.21 22.75 11.5 22.75Z" fill="white"/>
</svg>
