<svg width="24" height="13" viewBox="0 0 24 13" fill="none" xmlns="http://www.w3.org/2000/svg">
<path d="M22.7699 5.01998H3.98994L6.91994 1.95998C7.35994 1.49998 7.34994 0.759981 6.88994 0.319981C6.42994 -0.120019 5.68994 -0.110019 5.24994 0.349981L0.319939 5.47998C-0.120061 5.93998 -0.110061 6.65998 0.339939 7.10998L5.25994 12.03C5.48994 12.26 5.77994 12.37 6.07994 12.37C6.37994 12.37 6.66994 12.26 6.89994 12.03C7.34994 11.58 7.34994 10.84 6.89994 10.39L3.86994 7.34998H22.7699C23.4099 7.34998 23.9299 6.82998 23.9299 6.18998C23.9299 5.54998 23.4099 5.01998 22.7699 5.01998Z" fill="#212121"/>
</svg>
