<svg width="24" height="24" viewBox="0 0 24 24" fill="none" xmlns="http://www.w3.org/2000/svg">
<path d="M8.62 0H2.44C1.1 0 0 1.1 0 2.44V8.61C0 9.96 1.1 11.05 2.44 11.05H8.62C9.97 11.05 11.06 9.95 11.06 8.61V2.44C11.06 1.1 9.97 0 8.62 0ZM9.49 8.62C9.49 9.1 9.1 9.49 8.62 9.49H2.44C1.96 9.49 1.57 9.1 1.57 8.62V2.44C1.57 1.96 1.96 1.57 2.44 1.57H8.62C9.1 1.57 9.49 1.96 9.49 2.44V8.62Z" fill="white"/>
<path d="M21.5084 0H15.3384C13.9884 0 12.8984 1.1 12.8984 2.44V8.61C12.8984 9.96 13.9984 11.05 15.3384 11.05H21.5084C22.8584 11.05 23.9484 9.95 23.9484 8.61V2.44C23.9584 1.1 22.8584 0 21.5084 0ZM22.3884 8.62C22.3884 9.1 21.9984 9.49 21.5184 9.49H15.3484C14.8684 9.49 14.4784 9.1 14.4784 8.62V2.44C14.4784 1.96 14.8684 1.57 15.3484 1.57H21.5184C21.9984 1.57 22.3884 1.96 22.3884 2.44V8.62Z" fill="white"/>
<path d="M8.62 12.6299H2.44C1.1 12.6299 0 13.7199 0 15.0699V21.2499C0 22.5999 1.1 23.6899 2.44 23.6899H8.62C9.97 23.6899 11.06 22.5899 11.06 21.2499V15.0699C11.06 13.7199 9.97 12.6299 8.62 12.6299ZM9.49 21.2399C9.49 21.7199 9.1 22.1099 8.62 22.1099H2.44C1.96 22.1099 1.57 21.7199 1.57 21.2399V15.0599C1.57 14.5799 1.96 14.1899 2.44 14.1899H8.62C9.1 14.1899 9.49 14.5799 9.49 15.0599V21.2399Z" fill="white"/>
<path d="M21.5084 12.6299H15.3384C13.9884 12.6299 12.8984 13.7299 12.8984 15.0699V21.2499C12.8984 22.5999 13.9984 23.6899 15.3384 23.6899H21.5084C22.8584 23.6899 23.9484 22.5899 23.9484 21.2499V15.0699C23.9584 13.7199 22.8584 12.6299 21.5084 12.6299ZM22.3884 21.2399C22.3884 21.7199 21.9984 22.1099 21.5184 22.1099H15.3484C14.8684 22.1099 14.4784 21.7199 14.4784 21.2399V15.0599C14.4784 14.5799 14.8684 14.1899 15.3484 14.1899H21.5184C21.9984 14.1899 22.3884 14.5799 22.3884 15.0599V21.2399Z" fill="white"/>
</svg>
