<svg width="23" height="23" viewBox="0 0 23 23" fill="none" xmlns="http://www.w3.org/2000/svg">
<path d="M22.0157 13.3757C21.9586 12.9818 21.5877 12.7098 21.1883 12.766C20.7889 12.8223 20.5131 13.1881 20.5702 13.582C20.5987 13.7977 20.6177 14.0228 20.6082 14.2385C20.5606 16.3956 18.7633 18.1213 16.5855 18.1213C16.5569 18.1213 16.5284 18.1213 16.4904 18.1213C14.2745 18.0744 12.5057 16.2549 12.5532 14.0603C12.5817 13.0005 13.0192 12.0157 13.799 11.2748C14.5789 10.5433 15.5869 10.1494 16.6711 10.1775C17.2892 10.1869 17.8883 10.337 18.4304 10.6183C18.7918 10.8059 19.2292 10.6652 19.4099 10.3088C19.5906 9.95243 19.4575 9.52101 19.0961 9.34282C18.3543 8.95829 17.546 8.76134 16.6996 8.74258C16.6615 8.74258 16.614 8.74258 16.576 8.74258C15.159 8.74258 13.818 9.26779 12.791 10.2432C11.7354 11.2373 11.1267 12.5878 11.0982 14.0322C11.0316 17.0146 13.4281 19.4906 16.4523 19.5562C16.4904 19.5562 16.5379 19.5562 16.576 19.5562C17.6125 19.5562 18.5921 19.2655 19.4194 18.759V20.6066H1.45503V6.35101H7.26565L7.25614 9.32406H13.2189V6.35101H19.429V8.00166C19.429 8.39557 19.7523 8.72382 20.1612 8.72382C20.5606 8.72382 20.8935 8.40494 20.8935 8.00166V5.9571C20.8935 5.77891 20.846 5.61009 20.7604 5.46941C20.7508 5.45065 20.7413 5.4319 20.7318 5.42252C20.7223 5.40376 20.7033 5.37562 20.6843 5.35686C20.6748 5.34749 20.6748 5.33811 20.6653 5.32873L17.3843 1.23023C17.2607 1.06142 17.0419 0.958252 16.8232 0.958252H3.57576C3.33801 0.958252 3.10977 1.08018 2.97663 1.27713L0.19971 5.30997C0.16167 5.36624 0.13314 5.4319 0.11412 5.49755C0.0380401 5.63823 0 5.78829 0 5.9571V21.0005C0 21.5726 0.475501 22.0416 1.05561 22.0416H19.8284C20.4085 22.0416 20.884 21.5726 20.884 21.0005V17.4835C21.5972 16.5926 22.0347 15.4859 22.0632 14.2666C22.0727 13.9665 22.0537 13.6664 22.0157 13.3757ZM11.7639 7.88912H8.71117V6.35101H11.7639V7.88912ZM8.81578 4.91607L9.18667 2.39319H11.1362L11.6403 4.91607H8.81578ZM18.4875 4.91607H13.1048L12.6103 2.39319H16.4713L18.4875 4.91607ZM3.96568 2.39319H7.71262L7.34173 4.91607H2.23485L3.96568 2.39319Z" fill="#212121"/>
<path d="M22.786 8.94889C22.5007 8.66753 22.0442 8.66753 21.7589 8.94889L16.5189 14.1166L15.3587 13.0193C15.0734 12.7473 14.6074 12.7566 14.3316 13.038C14.0558 13.3194 14.0653 13.7789 14.3506 14.0509L16.0244 15.6359C16.1671 15.7672 16.3477 15.8329 16.5284 15.8329C16.7186 15.8329 16.8993 15.7672 17.042 15.6265L22.786 9.96179C23.0713 9.68043 23.0713 9.23026 22.786 8.94889Z" fill="#212121"/>
<path d="M6.48585 17.5117H2.9291V18.9466H6.48585V17.5117Z" fill="#212121"/>
</svg>
