<svg width="25" height="23" viewBox="0 0 25 23" fill="none" xmlns="http://www.w3.org/2000/svg">
<path d="M21.9489 6.27458L24.0689 3.93458C24.2389 3.74458 24.3089 3.47458 24.2389 3.22458C24.1689 2.97458 23.9789 2.77457 23.7289 2.69458L15.0289 0.034575C14.7489 -0.055425 14.4389 0.034575 14.2389 0.254575L12.0389 2.68458L9.88888 0.264575C9.68888 0.034575 9.37888 -0.045425 9.08888 0.044575L0.608884 2.70458C0.368884 2.78457 0.178884 2.97458 0.108884 3.22458C0.0288838 3.46458 0.0888838 3.73458 0.258884 3.92458L2.45888 6.46458L0.178884 9.14458C0.0188838 9.33457 -0.0411162 9.59457 0.0288838 9.84457C0.0988838 10.0846 0.278884 10.2846 0.508884 10.3646L2.63888 11.1146V18.5546C2.63888 18.8646 2.82888 19.1446 3.11888 19.2646L11.8289 22.6946C11.9189 22.7346 12.0089 22.7446 12.1089 22.7446C12.1989 22.7446 12.2889 22.7246 12.3789 22.6946L21.0189 19.4546C21.3189 19.3446 21.5089 19.0546 21.5089 18.7446V11.2446L23.7189 10.5146C23.9489 10.4346 24.1289 10.2546 24.2089 10.0246C24.2889 9.79458 24.2489 9.54457 24.1089 9.34457L21.9489 6.27458ZM12.1189 8.54457L5.37888 6.43458L11.3489 4.73458V7.98458H12.8689V4.73458L18.7889 6.43458L12.1189 8.54457ZM15.0289 1.63458L22.1189 3.80457L20.6789 5.39458L13.4989 3.32457L15.0289 1.63458ZM9.06888 1.64457L10.5889 3.36457L3.52888 5.37458L2.16888 3.80457L9.06888 1.64457ZM3.59888 7.47458L10.8589 9.75457L9.07888 11.7446L2.05888 9.28457L3.59888 7.47458ZM4.16888 11.6346L9.06888 13.3446C9.14888 13.3746 9.23888 13.3846 9.31888 13.3846C9.52888 13.3846 9.73888 13.2946 9.88888 13.1346L11.3589 11.4946V20.8646L4.17888 18.0346V11.6346H4.16888ZM19.9989 18.2146L12.8789 20.8846V11.2946L14.2589 13.0946C14.4089 13.2846 14.6289 13.3946 14.8689 13.3946C14.9489 13.3946 15.0289 13.3846 15.1089 13.3546L20.0089 11.7446V18.2146H19.9989ZM15.1389 11.7346L13.5689 9.68458L20.8589 7.37458L22.2789 9.37457L15.1389 11.7346Z" fill="#212121"/>
</svg>
