<?xml version="1.0" encoding="utf-8"?>
<!-- Generator: Adobe Illustrator 25.4.1, SVG Export Plug-In . SVG Version: 6.00 Build 0)  -->
<svg version="1.1" id="Layer_1" xmlns="http://www.w3.org/2000/svg" xmlns:xlink="http://www.w3.org/1999/xlink" x="0px" y="0px"
	 viewBox="0 0 25 23.3" style="enable-background:new 0 0 25 23.3;" xml:space="preserve">
<style type="text/css">
	.st0{fill:#212121;}
</style>
<path class="st0" d="M22.3,6.6l2.1-2.3c0.2-0.2,0.2-0.5,0.2-0.7c-0.1-0.2-0.3-0.5-0.5-0.5l-8.7-2.7c-0.3-0.1-0.6,0-0.8,0.2L12.4,3
	l-2.2-2.4c-0.2-0.2-0.5-0.3-0.8-0.2L1,3C0.7,3.1,0.5,3.3,0.5,3.5C0.4,3.7,0.5,4,0.6,4.2l2.2,2.5L0.5,9.4c-0.2,0.2-0.2,0.4-0.2,0.7
	c0.1,0.2,0.3,0.4,0.5,0.5L3,11.4v7.4c0,0.3,0.2,0.6,0.5,0.7l8.7,3.4c0.1,0,0.2,0.1,0.3,0.1c0.1,0,0.2,0,0.3-0.1l8.6-3.2
	c0.3-0.1,0.5-0.4,0.5-0.7v-7.5l2.2-0.7c0.2-0.1,0.4-0.3,0.5-0.5c0.1-0.2,0-0.5-0.1-0.7L22.3,6.6z M12.5,8.8L5.7,6.7l6-1.7v3.2h1.5V5
	l5.9,1.7L12.5,8.8z M15.4,1.9l7.1,2.2L21,5.7l-7.2-2.1L15.4,1.9z M9.4,1.9L11,3.6l-7.1,2L2.5,4.1L9.4,1.9z M4,7.8l7.3,2.3l-1.8,2
	l-7-2.5L4,7.8z M4.5,11.9l4.9,1.7c0.1,0,0.2,0,0.2,0c0.2,0,0.4-0.1,0.6-0.2l1.5-1.6v9.4l-7.2-2.8L4.5,11.9L4.5,11.9z M20.4,18.5
	l-7.1,2.7v-9.6l1.4,1.8c0.2,0.2,0.4,0.3,0.6,0.3c0.1,0,0.2,0,0.2,0l4.9-1.6L20.4,18.5L20.4,18.5z M15.5,12L13.9,10l7.3-2.3l1.4,2
	L15.5,12z"/>
</svg>
