<svg width="19" height="17" viewBox="0 0 19 17" fill="none" xmlns="http://www.w3.org/2000/svg">
<path d="M6.20257 8.27289H3.85205V10.4466H6.20257V8.27289Z" fill="#212121"/>
<path d="M6.20257 11.7037H3.85205V13.8774H6.20257V11.7037Z" fill="#212121"/>
<path d="M10.6752 8.27289H8.32471V10.4466H10.6752V8.27289Z" fill="#212121"/>
<path d="M10.6752 11.7037H8.32471V13.8774H10.6752V11.7037Z" fill="#212121"/>
<path d="M15.1806 8.27289H12.8301V10.4466H15.1806V8.27289Z" fill="#212121"/>
<path d="M15.1806 11.7037H12.8301V13.8774H15.1806V11.7037Z" fill="#212121"/>
<path d="M17.0249 1.33015H15.613V0H14.4132V1.33015H5.37844V0H4.17053V1.33015H1.97509C0.889605 1.33015 0 2.21422 0 3.30105V15.0372C0 16.124 0.889605 17 1.97509 17H17.0249C18.1186 17 19 16.1159 19 15.0372V3.30105C19 2.21422 18.1186 1.33015 17.0249 1.33015ZM1.97509 2.53053H4.17053V4.15267H5.37028V2.53053H14.4051V4.15267H15.6048V2.53053H17.0168C17.4412 2.53053 17.7921 2.87929 17.7921 3.30105V5.37739H1.19974V3.30105C1.19974 2.87118 1.55069 2.53053 1.97509 2.53053ZM17.0249 15.8077H1.97509C1.55069 15.8077 1.19974 15.459 1.19974 15.0372V6.56966H17.8003V15.0291C17.8003 15.459 17.4493 15.8077 17.0249 15.8077Z" fill="#212121"/>
</svg>
