<svg width="20" height="22" viewBox="0 0 20 22" fill="none" xmlns="http://www.w3.org/2000/svg">
<path d="M9.99112 11.8518C11.9231 11.8518 13.4974 10.2398 13.4974 8.26148C13.4974 6.28313 11.9231 4.67114 9.99112 4.67114C8.0591 4.67114 6.48486 6.28313 6.48486 8.26148C6.48486 10.2398 8.0591 11.8518 9.99112 11.8518ZM9.99112 6.13659C11.136 6.13659 12.0663 7.08913 12.0663 8.26148C12.0663 9.43384 11.136 10.3864 9.99112 10.3864C8.84622 10.3864 7.91599 9.43384 7.91599 8.26148C7.91599 7.08913 8.84622 6.13659 9.99112 6.13659Z" fill="#212121"/>
<path d="M19.982 20.4619L19.007 14.3528C18.9086 13.7117 18.363 13.2354 17.7279 13.2354H16.3773C16.8692 12.6126 17.2539 11.9531 17.5133 11.257C17.9426 10.1305 18.1215 8.9398 18.041 7.71249C17.7816 3.58176 14.5437 0.266193 10.5007 0.00974052C8.25565 -0.127645 6.10896 0.660032 4.46317 2.24454C2.8442 3.80158 1.92292 5.99059 1.92292 8.26203C1.92292 8.40857 1.92292 8.55512 1.93186 8.6925C2.01236 10.3137 2.62059 11.8982 3.65816 13.2354H2.42381C1.79769 13.2354 1.26102 13.6933 1.15369 14.3162L0.0266728 20.4252C-0.0448836 20.8191 0.0535064 21.2129 0.303954 21.5152C0.554401 21.8174 0.912183 21.9914 1.30574 21.9914H18.7118C19.0964 21.9914 19.4542 21.8174 19.6957 21.5243C19.9372 21.2312 20.0446 20.8465 19.982 20.4619ZM3.3451 8.26203C3.3451 6.36611 4.0875 4.60757 5.43812 3.30699C6.68141 2.10716 8.28249 1.46603 9.98195 1.46603C10.1251 1.46603 10.2682 1.47519 10.4113 1.47519C13.7297 1.68584 16.3952 4.41524 16.6099 7.81324C16.6725 8.82073 16.5294 9.80075 16.1716 10.735C15.8854 11.4769 15.4202 12.1913 14.7941 12.8599L10.2056 17.6775C10.1251 17.7599 10.0356 17.7691 9.9909 17.7691C9.94617 17.7691 9.84778 17.7599 9.77623 17.6775L5.2324 12.869C4.10538 11.6692 3.43454 10.1671 3.36299 8.62839C3.35404 8.50016 3.3451 8.3811 3.3451 8.26203ZM1.44886 20.5351L2.5222 14.6917H4.97301L8.7476 18.685C9.07855 19.0331 9.51684 19.2254 9.9909 19.2254C10.465 19.2254 10.9032 19.0331 11.2252 18.6942L15.0356 14.7008H17.6116L18.5419 20.5443H1.44886V20.5351Z" fill="#212121"/>
</svg>
