<svg width="26" height="24" viewBox="0 0 26 24" fill="none" xmlns="http://www.w3.org/2000/svg">
<path d="M19.6486 6.09064C19.3315 5.76234 18.8242 5.77366 18.5071 6.11328C18.2006 6.4529 18.2112 6.9963 18.5283 7.33592L19.8177 8.66045C19.9763 8.81894 20.1771 8.89819 20.3779 8.89819C20.5787 8.89819 20.7901 8.81894 20.9486 8.64913L25.3666 3.91706C25.6837 3.57743 25.6837 3.03404 25.3666 2.69441C25.0495 2.35479 24.5422 2.35479 24.2251 2.69441L20.3673 6.82649L19.6486 6.09064Z" fill="#4D4D4D"/>
<path d="M21.646 14.9547C21.4346 15.0113 21.2127 15.0792 20.9907 15.1472V11.966C23.1363 11.6717 24.8274 9.72453 24.8802 7.33585C24.8908 6.86038 24.542 6.46415 24.0981 6.45283C23.6436 6.43019 23.2843 6.81509 23.2737 7.29057C23.242 8.95472 21.9631 10.2792 20.42 10.2792C20.3988 10.2792 20.3777 10.2792 20.3565 10.2792C19.5956 10.2566 18.8874 9.9283 18.3589 9.33962C17.8305 8.75094 17.5557 7.96981 17.5662 7.15472C17.5874 6.33962 17.8939 5.58113 18.4435 5.01509C18.9931 4.44906 19.7118 4.1434 20.4834 4.16604C20.7476 4.17736 21.0013 4.21132 21.2549 4.30189C21.6777 4.43774 22.1322 4.18868 22.259 3.72453C22.3859 3.2717 22.1428 2.78491 21.72 2.64906C21.4875 2.56981 21.2338 2.52453 20.9907 2.49057V0.860377C20.9907 0.384906 20.6314 0 20.1874 0H14.9133H9.31159H4.03749C3.59358 0 3.22365 0.384906 3.22365 0.860377V12.1698C1.80736 12.1132 0.813839 12.2264 0.708146 12.2377C0.306511 12.283 0 12.6566 0 13.0868V20.0151C0 20.3321 0.15854 20.6151 0.422774 20.7736C0.443912 20.7849 2.31469 21.883 4.32286 22.9585C5.64403 23.6717 8.14896 24 10.5905 24C12.3239 24 14.0255 23.8302 15.2516 23.5132C17.8305 22.834 23.6119 20.4679 24.9965 18.5208C25.5778 17.6943 25.6518 16.8 25.1973 16.0528C24.5737 15.034 23.0834 14.5698 21.646 14.9547ZM14.1101 1.72075V3.31698H10.1149V1.72075H14.1101ZM4.84076 1.72075H8.50832V4.17736C8.50832 4.65283 8.86768 5.03774 9.31159 5.03774H14.9133C15.3573 5.03774 15.7166 4.65283 15.7166 4.17736V1.72075H19.3842V2.58113C18.6232 2.77358 17.915 3.16981 17.3337 3.76981C16.467 4.65283 15.9808 5.84151 15.9597 7.12075C15.928 8.4 16.3719 9.61132 17.1963 10.5283C17.7988 11.2075 18.5598 11.6604 19.3842 11.8755V15.7698C19.1411 15.8717 18.9086 15.9849 18.6972 16.0755C18.285 15.1358 17.3971 14.4792 16.3719 14.4792H11.1189C9.15305 13.1094 6.80665 12.5208 4.84076 12.2943V1.72075ZM23.7176 17.4679C22.8086 18.7472 17.8833 21.0453 14.8711 21.8264C12.0279 22.5736 6.79609 22.3472 5.04157 21.4075C3.61471 20.6491 2.26184 19.8792 1.60654 19.4943V13.8906C3.2765 13.8113 7.47252 13.8792 10.4108 16.0415C10.5482 16.1434 10.7067 16.1887 10.8653 16.1887H16.3719C16.9004 16.1887 17.3337 16.6528 17.3337 17.2189C17.3337 17.7849 16.9004 18.2491 16.3719 18.2491H7.33512V19.9698H16.3613C17.5662 19.9698 18.5915 19.0755 18.8557 17.8641C19.5744 17.5132 20.9062 16.9132 22.0159 16.6189C22.8721 16.3925 23.6542 16.6868 23.8339 16.9925C23.9078 17.0943 23.8656 17.2528 23.7176 17.4679Z" fill="#4D4D4D"/>
<path d="M18.1159 12.0339H14.332V13.9358H18.1159V12.0339Z" fill="#4D4D4D"/>
</svg>
