<svg width="27" height="27" viewBox="0 0 27 27" fill="none" xmlns="http://www.w3.org/2000/svg">
<path d="M13.2114 19.1766C13.4443 19.3828 13.729 19.4798 14.0267 19.4798C14.3243 19.4798 14.6349 19.3706 14.8549 19.1523L21.0021 13.3908C21.455 12.9663 21.455 12.2628 21.0021 11.8261C20.5491 11.4016 19.7985 11.4016 19.3327 11.8261L15.062 15.8288V1.10377C15.062 0.497305 14.5314 0 13.8843 0C13.2373 0 12.7196 0.497305 12.7196 1.10377V15.6833L8.43599 11.8261C7.9701 11.4016 7.23244 11.4259 6.77949 11.8625C6.32654 12.2992 6.33949 13.0027 6.81832 13.4151L13.2114 19.1766Z" fill="#666666"/>
<path d="M25.6487 18.3638C25.0017 18.3638 24.4711 18.8611 24.4711 19.4675V24.8045H3.33776V19.7708C3.33776 19.1643 2.80716 18.667 2.16009 18.667C1.51302 18.667 0.982422 19.1643 0.982422 19.7708V25.8961C0.982422 26.5026 1.51302 26.9999 2.16009 26.9999H25.6487C26.2958 26.9999 26.8264 26.5026 26.8264 25.8961V19.4554C26.8264 18.8611 26.2958 18.3638 25.6487 18.3638Z" fill="#666666"/>
</svg>
