<svg width="11" height="12" viewBox="0 0 11 12" fill="none" xmlns="http://www.w3.org/2000/svg">
<path d="M5.20533 8.52291C5.30448 8.61456 5.42566 8.65768 5.55235 8.65768C5.67904 8.65768 5.81124 8.60916 5.90488 8.51213L8.5213 5.95148C8.71409 5.7628 8.71409 5.45013 8.5213 5.25606C8.32852 5.06739 8.00904 5.06739 7.81074 5.25606L5.99301 7.03504V0.490566C5.99301 0.221024 5.76717 0 5.49176 0C5.21635 0 4.99602 0.221024 4.99602 0.490566V6.97035L3.17278 5.25606C2.97448 5.06739 2.66051 5.07817 2.46772 5.27224C2.27493 5.46631 2.28044 5.77898 2.48425 5.96226L5.20533 8.52291Z" fill="#212121"/>
<path d="M10.4987 8.16174C10.2233 8.16174 9.9975 8.38277 9.9975 8.65231V11.0243H1.0025V8.78708C1.0025 8.51754 0.776665 8.29651 0.501252 8.29651C0.225839 8.29651 0 8.51754 0 8.78708V11.5095C0 11.779 0.225839 12 0.501252 12H10.4987C10.7742 12 11 11.779 11 11.5095V8.64692C11 8.38277 10.7742 8.16174 10.4987 8.16174Z" fill="#212121"/>
</svg>
