<svg width="23" height="23" viewBox="0 0 23 23" fill="none" xmlns="http://www.w3.org/2000/svg">
<path d="M21.3056 12.9356L19.8106 12.0473C19.8551 11.6756 19.8818 11.304 19.8818 10.9233C19.8818 10.5969 19.864 10.2797 19.8284 9.96241L21.3234 9.07407C21.9729 8.69336 22.1954 7.83221 21.8306 7.17049L19.9708 3.83468C19.7839 3.50836 19.4903 3.27267 19.1255 3.17296C18.7606 3.07325 18.3869 3.12764 18.0666 3.32706L16.6517 4.18821C16.0734 3.72591 15.4327 3.34519 14.7653 3.06419V1.42348C14.7653 0.652979 14.1513 0.0184508 13.3861 0.0184508H9.60429C8.84793 0.000321425 8.22505 0.625785 8.22505 1.40535L8.23395 3.05512C7.56658 3.33613 6.9348 3.71684 6.36531 4.17008L4.95938 3.34519C4.64794 3.15483 4.27421 3.10951 3.91827 3.20016C3.56234 3.29987 3.2687 3.53555 3.08183 3.86188L1.19539 7.18862C0.812767 7.85941 1.04412 8.72055 1.7026 9.10127L3.17082 9.96241C3.13522 10.2797 3.11743 10.5969 3.11743 10.9142C3.11743 11.2677 3.13522 11.6213 3.17972 11.9748L1.72929 12.7634C1.40006 12.9447 1.1598 13.2438 1.05302 13.6064C0.946242 13.969 0.990733 14.3588 1.1776 14.6942L3.03734 18.039C3.40217 18.7008 4.23861 18.9455 4.88819 18.5829L6.4187 17.7218C6.97929 18.1569 7.59327 18.5195 8.22505 18.7914V20.6044C8.22505 21.3749 8.83904 22.0094 9.60429 22.0094H13.3772C13.7509 22.0094 14.0979 21.8643 14.356 21.5924C14.614 21.3205 14.7564 20.9669 14.7564 20.5953L14.7297 18.8095C15.3526 18.5467 15.9399 18.2022 16.4738 17.7943L18.031 18.7008C18.6895 19.0906 19.5348 18.8549 19.9085 18.1841L21.795 14.8483C22.1687 14.1775 21.9462 13.3163 21.3056 12.9356ZM18.7162 17.477L17.1589 16.5706C16.6873 16.2896 16.1001 16.3258 15.664 16.6522C15.2102 16.9966 14.7119 17.2776 14.1958 17.5042C13.6797 17.7218 13.3594 18.2294 13.3594 18.8095L13.3772 20.6044H9.60429V18.7914C9.60429 18.2294 9.27505 17.7218 8.77675 17.5042C8.23395 17.2686 7.72675 16.9694 7.25514 16.6068C7.01488 16.4255 6.73014 16.3258 6.43649 16.3258C6.21404 16.3258 5.98268 16.3802 5.77802 16.4981L4.23861 17.3501L2.37887 14.0053L3.82929 13.2166C4.3276 12.9447 4.61234 12.3827 4.55005 11.8116C4.51446 11.5215 4.49666 11.2224 4.49666 10.9233C4.49666 10.6604 4.51446 10.3885 4.54116 10.1256C4.60344 9.57263 4.3365 9.03781 3.86489 8.75681L2.38777 7.8866L4.27421 4.55079L5.67124 5.37568C6.16065 5.66575 6.76573 5.62043 7.20175 5.27597C7.68226 4.89525 8.20726 4.57799 8.76785 4.34231C9.27505 4.12475 9.60429 3.61713 9.60429 3.05512V1.40535H13.3861V3.04606C13.3861 3.60807 13.7153 4.11569 14.2225 4.33324C14.792 4.57799 15.317 4.89525 15.8064 5.27597C16.2424 5.62949 16.8653 5.66575 17.3458 5.37568L18.7695 4.51454L20.6293 7.85941L19.1344 8.74774C18.6628 9.02875 18.3958 9.56357 18.4581 10.1074C18.4848 10.3703 18.5026 10.6423 18.5026 10.9142C18.5026 11.2315 18.4848 11.5487 18.4403 11.8569C18.3691 12.4099 18.6272 12.9538 19.1077 13.2348L20.6026 14.1322L18.7162 17.477Z" fill="#212121"/>
</svg>
