<svg width="15" height="15" viewBox="0 0 15 15" fill="none" xmlns="http://www.w3.org/2000/svg">
<path d="M14.0745 7.49954C14.198 7.3711 14.2562 7.21411 14.2562 7.04999C14.2562 6.88588 14.1908 6.71462 14.06 6.59332L10.6087 3.20391C10.3544 2.95417 9.93303 2.95417 9.67147 3.20391C9.41716 3.45366 9.41716 3.86752 9.67147 4.1244L12.0692 6.47915H3.24126C2.87797 6.47915 2.58008 6.77171 2.58008 7.12849C2.58008 7.48527 2.87797 7.77783 3.24126 7.77783H11.9747L9.6642 10.1397C9.4099 10.3966 9.41716 10.8105 9.686 11.0531C9.94756 11.3028 10.369 11.2957 10.616 11.0317L14.0745 7.49954Z" fill="#3363FF"/>
<path d="M5.18048 13.6005C5.18048 13.2437 4.88258 12.9511 4.5193 12.9511H1.32237V1.29868H4.33039C4.69368 1.29868 4.99157 1.00612 4.99157 0.649341C4.99157 0.29256 4.69368 0 4.33039 0H0.661183C0.297896 0 0 0.29256 0 0.649341V13.6005C0 13.9573 0.297896 14.2498 0.661183 14.2498H4.5193C4.88258 14.2498 5.18048 13.9573 5.18048 13.6005Z" fill="#3363FF"/>
</svg>
