<svg width="18" height="20" viewBox="0 0 18 20" fill="none" xmlns="http://www.w3.org/2000/svg">
<path d="M17.6704 1.7639C17.4676 1.64347 17.2141 1.63487 17.0028 1.7553C13.6817 3.64778 11.4592 2.96821 8.28169 0.963905C4.97747 -1.12642 0.583099 0.834873 0.397183 0.912292C0.152113 1.02412 0 1.27358 0 1.54025V19.3209C0 19.6994 0.295775 20.0005 0.667606 20.0005C1.03944 20.0005 1.33521 19.6994 1.33521 19.3209V12.4306C2.4 12.0435 5.3831 11.1575 7.57183 12.5424C11.0282 14.7273 13.7915 15.5618 17.6535 13.3682C17.8648 13.2478 18 13.0241 18 12.7747V2.34885C18 2.10799 17.8732 1.88434 17.6704 1.7639ZM16.6648 12.3704C13.5296 14.022 11.3493 13.3252 8.28169 11.3897C7.14085 10.6671 5.87324 10.4263 4.69014 10.4263C3.35493 10.4263 2.12958 10.7273 1.33521 10.9854V2.00477C2.4 1.61767 5.3831 0.731647 7.57183 2.11659C10.7239 4.11229 13.3014 4.98111 16.6563 3.45853V12.3704H16.6648Z" fill="#212121"/>
</svg>
