<svg width="19" height="23" viewBox="0 0 19 23" fill="none" xmlns="http://www.w3.org/2000/svg">
<path d="M16.458 1.90169H15.3252C15.0673 0.813657 14.1095 0 12.9767 0H6.0325C4.89048 0 3.93266 0.813657 3.67479 1.90169H2.54198C1.621 1.90169 0.875 2.6775 0.875 3.61415V21.2875C0.875 22.2336 1.621 23 2.54198 23H16.458C17.379 23 18.125 22.2336 18.125 21.2875V3.61415C18.125 2.6775 17.379 1.90169 16.458 1.90169ZM6.0325 1.59893H12.9767C13.4556 1.59893 13.8424 1.9963 13.8424 2.48828C13.8424 2.98026 13.4556 3.37762 12.9767 3.37762H6.0325C5.55359 3.37762 5.16678 2.98026 5.16678 2.48828C5.16678 1.9963 5.55359 1.59893 6.0325 1.59893ZM16.5685 21.2875C16.5685 21.3538 16.5225 21.4011 16.458 21.4011H2.54198C2.47751 21.4011 2.43146 21.3538 2.43146 21.2875V3.61415C2.43146 3.54792 2.47751 3.50062 2.54198 3.50062H3.82214C4.19975 4.36158 5.04705 4.96709 6.0325 4.96709H12.9767C13.953 4.96709 14.8003 4.36158 15.1779 3.50062H16.458C16.5225 3.50062 16.5685 3.54792 16.5685 3.61415V21.2875Z" fill="#212121"/>
<path d="M6.88902 8.36364H9.18226C9.61512 8.36364 9.95589 8.00411 9.95589 7.5689C9.95589 7.12423 9.60591 6.77417 9.18226 6.77417H6.88902C6.45615 6.76471 6.11539 7.12423 6.11539 7.5689C6.11539 8.00411 6.45615 8.36364 6.88902 8.36364Z" fill="#212121"/>
<path d="M13.9898 10.4451H6.88902C6.45615 10.4451 6.11539 10.8046 6.11539 11.2398C6.11539 11.6845 6.46536 12.0346 6.88902 12.0346H13.999C14.4319 12.0346 14.7726 11.675 14.7726 11.2398C14.7726 10.8046 14.4227 10.4451 13.9898 10.4451Z" fill="#212121"/>
<path d="M13.9898 14.1349H6.88902C6.45615 14.1349 6.11539 14.4944 6.11539 14.9297C6.11539 15.3743 6.46536 15.7244 6.88902 15.7244H13.999C14.4319 15.7244 14.7726 15.3649 14.7726 14.9297C14.7726 14.485 14.4227 14.1349 13.9898 14.1349Z" fill="#212121"/>
<path d="M13.9898 17.8153H6.88902C6.45615 17.8153 6.11539 18.1748 6.11539 18.61C6.11539 19.0547 6.46536 19.4048 6.88902 19.4048H13.999C14.4319 19.4048 14.7726 19.0452 14.7726 18.61C14.7726 18.1654 14.4227 17.8153 13.9898 17.8153Z" fill="#212121"/>
<path d="M4.64182 6.76471C4.20896 6.76471 3.85898 7.12423 3.85898 7.5689C3.85898 8.01357 4.20896 8.36364 4.63261 8.36364C5.06547 8.36364 5.40623 8.00411 5.40623 7.5689C5.41544 7.12423 5.06547 6.76471 4.64182 6.76471Z" fill="#212121"/>
<path d="M4.64182 10.4451C4.20896 10.4451 3.86819 10.8046 3.86819 11.2398C3.86819 11.6845 4.21817 12.0346 4.64182 12.0346C5.07468 12.0346 5.41544 11.675 5.41544 11.2398C5.41544 10.8046 5.06547 10.4451 4.64182 10.4451Z" fill="#212121"/>
<path d="M4.64182 15.7244C5.06908 15.7244 5.41544 15.3686 5.41544 14.9297C5.41544 14.4907 5.06908 14.1349 4.64182 14.1349C4.21456 14.1349 3.86819 14.4907 3.86819 14.9297C3.86819 15.3686 4.21456 15.7244 4.64182 15.7244Z" fill="#212121"/>
<path d="M4.64182 19.4048C5.06908 19.4048 5.41544 19.049 5.41544 18.61C5.41544 18.1711 5.06908 17.8153 4.64182 17.8153C4.21456 17.8153 3.86819 18.1711 3.86819 18.61C3.86819 19.049 4.21456 19.4048 4.64182 19.4048Z" fill="#212121"/>
</svg>
