<svg width="25" height="22" viewBox="0 0 25 22" fill="none" xmlns="http://www.w3.org/2000/svg">
<path d="M20.48 13.21C20.28 13.26 20.07 13.32 19.86 13.38V10.57C21.89 10.31 23.49 8.59 23.54 6.48C23.55 6.06 23.22 5.71 22.8 5.7C22.37 5.68 22.03 6.02 22.02 6.44C21.99 7.91 20.78 9.08 19.32 9.08C19.3 9.08 19.28 9.08 19.26 9.08C18.54 9.06 17.87 8.77 17.37 8.25C16.87 7.73 16.61 7.04 16.62 6.32C16.64 5.6 16.93 4.93 17.45 4.43C17.97 3.93 18.65 3.66 19.38 3.68C19.63 3.69 19.87 3.72 20.11 3.8C20.51 3.92 20.94 3.7 21.06 3.29C21.18 2.89 20.95 2.46 20.55 2.34C20.33 2.27 20.09 2.23 19.86 2.2V0.76C19.86 0.34 19.52 0 19.1 0H14.11H8.81H3.82C3.4 0 3.05 0.34 3.05 0.76V10.75C1.71 10.7 0.77 10.8 0.67 10.81C0.29 10.85 0 11.18 0 11.56V17.68C0 17.96 0.15 18.21 0.4 18.35C0.42 18.36 2.19 19.33 4.09 20.28C5.34 20.91 7.71 21.2 10.02 21.2C11.66 21.2 13.27 21.05 14.43 20.77C16.87 20.17 22.34 18.08 23.65 16.36C24.2 15.63 24.27 14.84 23.84 14.18C23.25 13.28 21.84 12.87 20.48 13.21ZM13.35 1.52V2.93H9.57V1.52H13.35ZM4.58 1.52H8.05V3.69C8.05 4.11 8.39 4.45 8.81 4.45H14.11C14.53 4.45 14.87 4.11 14.87 3.69V1.52H18.34V2.28C17.62 2.45 16.95 2.8 16.4 3.33C15.58 4.11 15.12 5.16 15.1 6.29C15.07 7.42 15.49 8.49 16.27 9.3C16.84 9.9 17.56 10.3 18.34 10.49V13.93C18.11 14.02 17.89 14.12 17.69 14.2C17.3 13.37 16.46 12.79 15.49 12.79H10.52C8.66 11.58 6.44 11.06 4.58 10.86V1.52ZM22.44 15.43C21.58 16.56 16.92 18.59 14.07 19.28C11.38 19.94 6.43 19.74 4.77 18.91C3.42 18.24 2.14 17.56 1.52 17.22V12.27C3.1 12.2 7.07 12.26 9.85 14.17C9.98 14.26 10.13 14.3 10.28 14.3H15.49C15.99 14.3 16.4 14.71 16.4 15.21C16.4 15.71 15.99 16.12 15.49 16.12H6.94V17.64H15.48C16.62 17.64 17.59 16.85 17.84 15.78C18.52 15.47 19.78 14.94 20.83 14.68C21.64 14.48 22.38 14.74 22.55 15.01C22.62 15.1 22.58 15.24 22.44 15.43Z" fill="#212121"/>
</svg>
