<svg width="56" height="56" viewBox="0 0 56 56" fill="none" xmlns="http://www.w3.org/2000/svg">
<g clip-path="url(#clip0_761:1943)">
<rect width="55.2453" height="55.2453" rx="27.6226" fill="#EA5455" fill-opacity="0.12"/>
<path d="M22.8826 23.5082C24.3668 23.5082 25.5791 22.2901 25.5791 20.7986C25.5791 19.3072 24.3668 18.1004 22.8826 18.1004C21.3984 18.1004 20.1861 19.3186 20.1861 20.81C20.1861 22.3014 21.3984 23.5082 22.8826 23.5082ZM22.8826 19.8992C23.3811 19.8992 23.789 20.3091 23.789 20.81C23.789 21.311 23.3811 21.7208 22.8826 21.7208C22.3841 21.7208 21.9762 21.311 21.9762 20.81C21.9762 20.3091 22.3841 19.8992 22.8826 19.8992Z" fill="#212121"/>
<path d="M39.8434 28.4379H39.5715L37.1809 24.0547C36.7957 23.3489 36.0592 22.9048 35.2548 22.9048H31.7652V21.5273C31.7652 20.5368 30.9608 19.7285 29.9751 19.7285H28.4002C27.9244 17.2352 25.817 15.3339 23.2338 15.1631C21.6703 15.0607 20.1748 15.6071 19.0305 16.6887C18.1694 17.497 17.5916 18.5672 17.365 19.7285H15.7901C14.8044 19.7285 14 20.5254 14 21.5273V36.2934C14 37.2839 14.8044 38.0923 15.7901 38.0923H17.3876C17.6595 39.4471 18.8378 40.4717 20.2654 40.4717C21.693 40.4717 22.8826 39.4471 23.1432 38.0923H29.9638C29.9864 38.0923 29.9978 38.0923 30.0204 38.0923H32.547C32.8189 39.4471 33.9972 40.4717 35.4248 40.4717C36.8523 40.4717 38.042 39.4471 38.3025 38.0923H39.8661C40.8404 38.0923 41.6222 37.2953 41.6222 36.3276V30.2481C41.6448 29.2462 40.8291 28.4379 39.8434 28.4379ZM20.2541 17.998C20.9679 17.3149 21.8969 16.9506 22.8826 16.9506C22.9619 16.9506 23.0526 16.9506 23.1319 16.9619C25.0239 17.0758 26.5988 18.6583 26.7121 20.5596C26.7461 21.1288 26.6668 21.6867 26.4628 22.2104C26.3042 22.6202 26.0323 23.0301 25.6697 23.4058L22.8826 26.2634L20.1295 23.4058C19.4723 22.7227 19.0871 21.8802 19.0418 21.0036C19.0418 20.9353 19.0418 20.867 19.0418 20.7986C19.0418 19.7285 19.4723 18.738 20.2541 17.998ZM22.9393 36.2934C22.4747 35.2688 21.455 34.5629 20.2654 34.5629C19.0758 34.5629 18.0561 35.2688 17.5916 36.2934H15.7901V21.5273H17.297C17.4556 22.6771 17.9881 23.7815 18.8378 24.6695L21.7609 27.7093C22.0555 28.0166 22.4521 28.1874 22.8713 28.1874C23.2905 28.1874 23.687 28.0166 23.9816 27.7206L26.9387 24.6809C27.4712 24.1344 27.8677 23.5196 28.117 22.8821C28.2983 22.4267 28.4002 21.9827 28.4569 21.5273H29.9638V36.2934H22.9393ZM35.2548 24.7037C35.4021 24.7037 35.5381 24.7833 35.606 24.92L37.5208 28.4379H31.7539V24.7037H35.2548ZM39.8547 36.2934H38.1099C37.6454 35.2688 36.6257 34.5629 35.4361 34.5629C34.2464 34.5629 33.2268 35.2688 32.7622 36.2934H31.8105V30.2367L39.8434 30.2481V36.2934H39.8547Z" fill="#212121"/>
</g>
<defs>
<clipPath id="clip0_761:1943">
<rect width="55.2453" height="55.2453" fill="white" transform="translate(0.394531 0.30188)"/>
</clipPath>
</defs>
</svg>
