<svg width="56" height="56" viewBox="0 0 56 56" fill="none" xmlns="http://www.w3.org/2000/svg">
<g clip-path="url(#clip0_761:1949)">
<rect width="55.2453" height="55.2453" rx="27.6226" fill="#BFEAFF"/>
<path d="M40.4405 30.0641C40.372 29.591 39.9265 29.2643 39.4468 29.3319C38.9671 29.3995 38.6359 29.8388 38.7044 30.3119C38.7387 30.5709 38.7615 30.8412 38.7501 31.1003C38.693 33.691 36.5344 35.7635 33.9189 35.7635C33.8846 35.7635 33.8504 35.7635 33.8047 35.7635C31.1435 35.7072 29.0191 33.522 29.0762 30.8863C29.1105 29.6135 29.6359 28.4308 30.5724 27.541C31.509 26.6624 32.7196 26.1893 34.0217 26.2231C34.7641 26.2344 35.4836 26.4146 36.1346 26.7525C36.5686 26.9778 37.094 26.8089 37.311 26.3808C37.528 25.9528 37.3681 25.4347 36.9341 25.2207C36.0433 24.7589 35.0724 24.5223 34.0559 24.4998C34.0103 24.4998 33.9531 24.4998 33.9075 24.4998C32.2057 24.4998 30.5953 25.1306 29.3618 26.302C28.094 27.4959 27.363 29.1179 27.3287 30.8525C27.2488 34.4344 30.127 37.408 33.759 37.4868C33.8047 37.4868 33.8618 37.4868 33.9075 37.4868C35.1524 37.4868 36.3288 37.1376 37.3225 36.5294V38.7484H15.7475V21.6276H22.7259L22.7145 25.1981H29.8757V21.6276H37.3339V23.61C37.3339 24.083 37.7222 24.4773 38.2133 24.4773C38.693 24.4773 39.0928 24.0943 39.0928 23.61V21.1545C39.0928 20.9405 39.0357 20.7377 38.9329 20.5688C38.9214 20.5462 38.91 20.5237 38.8986 20.5125C38.8872 20.4899 38.8643 20.4561 38.8415 20.4336C38.8301 20.4223 38.8301 20.4111 38.8187 20.3998L34.8783 15.4776C34.7298 15.2748 34.4671 15.1509 34.2044 15.1509H18.2944C18.0089 15.1509 17.7348 15.2974 17.5749 15.5339L14.2398 20.3773C14.1942 20.4449 14.1599 20.5237 14.1371 20.6026C14.0457 20.7715 14 20.9517 14 21.1545V39.2214C14 39.9085 14.5711 40.4717 15.2678 40.4717H37.8136C38.5103 40.4717 39.0813 39.9085 39.0813 39.2214V34.9975C39.938 33.9275 40.4633 32.5984 40.4976 31.1341C40.509 30.7737 40.4862 30.4132 40.4405 30.0641ZM28.1282 23.4748H24.462V21.6276H28.1282V23.4748ZM24.5876 19.9042L25.0331 16.8743H27.3744L27.9798 19.9042H24.5876ZM36.2032 19.9042H29.7387L29.1447 16.8743H33.7818L36.2032 19.9042ZM18.7627 16.8743H23.2627L22.8173 19.9042H16.684L18.7627 16.8743Z" fill="#212121"/>
<path d="M41.3657 24.7476C41.023 24.4097 40.4748 24.4097 40.1322 24.7476L33.839 30.9539L32.4456 29.636C32.1029 29.3094 31.5433 29.3206 31.2121 29.6585C30.8808 29.9965 30.8923 30.5484 31.2349 30.875L33.2451 32.7786C33.4164 32.9363 33.6334 33.0151 33.8504 33.0151C34.0788 33.0151 34.2958 32.9363 34.4672 32.7673L41.3657 25.9641C41.7083 25.6261 41.7083 25.0855 41.3657 24.7476Z" fill="#212121"/>
<path d="M21.7894 35.0314H17.5178V36.7547H21.7894V35.0314Z" fill="#212121"/>
</g>
<defs>
<clipPath id="clip0_761:1949">
<rect width="55.2453" height="55.2453" fill="white" transform="translate(0.401123 0.30188)"/>
</clipPath>
</defs>
</svg>
