<svg width="56" height="56" viewBox="0 0 56 56" fill="none" xmlns="http://www.w3.org/2000/svg">
<g clip-path="url(#clip0_761:1955)">
<rect width="55.8317" height="55.8317" rx="27.9158" fill="#D6E0FF"/>
<path fill-rule="evenodd" clip-rule="evenodd" d="M36.5677 26.3314C39.9609 26.3314 42.727 28.9285 42.727 32.1142C42.727 33.6609 42.0631 35.0807 40.9936 36.1195V40.7481C40.9936 41.4752 40.3666 42.0755 39.5797 42.0755H14.4138C13.6393 42.0755 13 41.4868 13 40.7481V21.5528C13 21.3451 13.0615 21.1488 13.1475 20.9757L13.1475 20.9757C13.1844 20.8949 13.2213 20.8141 13.2705 20.7333L16.9956 15.5738C17.1677 15.3199 17.475 15.1698 17.7947 15.1698H35.5473C35.8546 15.1698 36.1374 15.2968 36.3218 15.5161L40.6862 20.7448C40.6924 20.7506 40.6954 20.7564 40.6985 20.7622C40.7016 20.7679 40.7047 20.7737 40.7108 20.7795C40.7231 20.791 40.7323 20.8054 40.7415 20.8199C40.7508 20.8343 40.76 20.8487 40.7723 20.8603L40.8092 20.9295C40.9198 21.1142 40.9813 21.322 40.9813 21.5528V24.1614C40.9813 24.6578 40.551 25.0733 40.01 25.0733C39.4814 25.0733 39.0388 24.6693 39.0388 24.1614V22.0492H30.7157V25.8466H22.7246L22.7369 22.0492H14.9548V40.2402H39.0388V37.4007C38.2766 37.7239 37.4406 37.8971 36.5554 37.8971C35.3137 37.8971 34.1212 37.5508 33.1008 36.8929C32.6582 36.6158 32.5353 36.0387 32.8426 35.6232C33.1377 35.2076 33.7524 35.0922 34.195 35.3808C34.8957 35.8309 35.7071 36.0618 36.5554 36.0618C38.879 36.0618 40.76 34.2958 40.76 32.1142C40.76 29.9327 38.879 28.1667 36.5554 28.1667C34.9326 28.1667 33.5188 29.0439 32.818 30.3252C33.1623 30.1982 33.5802 30.2674 33.863 30.5329C34.2441 30.8907 34.2441 31.4679 33.863 31.8257L32.105 33.4763C31.9206 33.6494 31.6624 33.7417 31.4165 33.7417C31.1706 33.7417 30.9247 33.6609 30.7403 33.4878L28.9085 31.8372C28.5274 31.4909 28.5151 30.9138 28.8839 30.5445C29.2527 30.1866 29.8674 30.1751 30.2609 30.5214L30.5805 30.7984C31.2198 28.236 33.654 26.3314 36.5677 26.3314ZM24.6794 24.0114H28.7733V22.0492H24.6794V24.0114ZM25.3063 16.9935L24.8146 20.2139H28.5889L27.9127 16.9935H25.3063ZM30.5682 20.2139H37.7848L35.0801 16.9935H29.9043L30.5682 20.2139ZM23.327 17.0051H18.311L15.9997 20.2254H22.8352L23.327 17.0051ZM16.9217 36.2927H21.6918V38.128H16.9217V36.2927Z" fill="#212121"/>
</g>
<defs>
<clipPath id="clip0_761:1955">
<rect width="55.8317" height="55.8317" fill="white"/>
</clipPath>
</defs>
</svg>
