<svg width="33" height="33" viewBox="0 0 33 33" fill="none" xmlns="http://www.w3.org/2000/svg">
<rect x="0.5" width="32" height="33" rx="10" fill="#D6E0FF"/>
<g clip-path="url(#clip0)">
<path d="M24.8622 14.9444H24.535V12.0911C24.535 11.9164 24.4678 11.7583 24.342 11.6335L19.6762 7.17469C19.5587 7.06655 19.3993 7 19.2399 7H9.83287C9.07762 7 8.46503 7.60727 8.46503 8.35595V14.9444H8.13776C7.78531 14.9444 7.5 15.2272 7.5 15.5766V22.2316C7.5 22.581 7.78531 22.8638 8.13776 22.8638H8.46503V24.644C8.46503 25.3927 9.07762 26 9.83287 26H23.1671C23.9224 26 24.535 25.3927 24.535 24.644V22.8638H24.8622C25.2147 22.8638 25.5 22.581 25.5 22.2316V15.5766C25.5 15.2272 25.2147 14.9444 24.8622 14.9444ZM8.77552 21.5994V16.2088H24.2245V21.5994H8.77552ZM19.693 8.94658L22.7224 11.8415H19.693V8.94658ZM9.74056 8.35595C9.74056 8.30604 9.78252 8.26445 9.83287 8.26445H18.4175V12.4737C18.4175 12.8231 18.7028 13.106 19.0552 13.106H23.2678V14.9444H9.74056V8.35595ZM23.2594 24.644C23.2594 24.694 23.2175 24.7356 23.1671 24.7356H9.83287C9.78252 24.7356 9.74056 24.694 9.74056 24.644V22.8638H23.2594V24.644Z" fill="#212121"/>
<path d="M13.4081 17.0491H12.0654V20.5013H12.8207V19.4199H13.4081C14.1046 19.4199 14.6333 18.9125 14.6333 18.2303C14.6417 17.5565 14.113 17.0491 13.4081 17.0491ZM13.3745 18.7378H12.8291V17.7478H13.3745C13.6766 17.7478 13.8696 17.9558 13.8696 18.247C13.8696 18.5381 13.6766 18.7378 13.3745 18.7378Z" fill="#212121"/>
<path d="M16.4786 17.0491H15.1611V20.5013H16.4786C17.5024 20.5013 18.2409 19.7693 18.2409 18.7711C18.2492 17.7728 17.5108 17.0491 16.4786 17.0491ZM16.4618 19.8109H15.9164V17.7478H16.4618C17.0576 17.7478 17.4772 18.1721 17.4772 18.7794C17.4772 19.3783 17.0576 19.8109 16.4618 19.8109Z" fill="#212121"/>
<path d="M18.8535 20.5013H19.6004V19.1787H20.8004V18.5049H19.6004V17.7478H20.9346V17.0491H18.8535V20.5013Z" fill="#212121"/>
</g>
<defs>
<clipPath id="clip0">
<rect width="18" height="19" fill="white" transform="translate(7.5 7)"/>
</clipPath>
</defs>
</svg>
