<svg width="32" height="30" viewBox="0 0 32 30" fill="none" xmlns="http://www.w3.org/2000/svg">
<path d="M28.0979 29.7827H3.91661C2.46626 29.7827 1.14776 29.0457 0.46214 27.853C-0.14437 26.7943 -0.14437 25.5346 0.43577 24.4759L12.5264 2.73928C13.1988 1.53318 14.5305 0.782715 16.0073 0.782715C17.484 0.782715 18.8025 1.53318 19.4881 2.73928L31.5787 24.4759C32.1721 25.5346 32.1589 26.8077 31.5524 27.853C30.8668 29.0457 29.5351 29.7827 28.0979 29.7827ZM2.20256 25.4944C1.88612 26.0706 2.07071 26.5798 2.21574 26.8211C2.53218 27.3705 3.19144 27.7189 3.91661 27.7189H28.0979C28.8231 27.7189 29.4823 27.3705 29.7988 26.8211C29.9438 26.5798 30.1284 26.0706 29.812 25.4944L17.7081 3.75776C17.3917 3.18151 16.7456 2.84649 16.0073 2.84649C15.2557 2.84649 14.6228 3.19491 14.3064 3.75776L2.20256 25.4944Z" fill="#666666"/>
<path d="M17.2844 10.3376L17.0075 19.6782C16.9943 20.2544 16.5196 20.6966 15.9659 20.6832C15.4253 20.6698 15.0034 20.2276 14.977 19.6782L14.7001 10.3376C14.6737 9.61393 15.2407 9.01088 15.9527 8.99748C16.6647 8.97068 17.258 9.54693 17.2712 10.2706C17.2844 10.2974 17.2844 10.3242 17.2844 10.3376Z" fill="#666666"/>
<path d="M16.0085 25.0925C16.8459 25.0925 17.5247 24.4025 17.5247 23.5514C17.5247 22.7002 16.8459 22.0103 16.0085 22.0103C15.171 22.0103 14.4922 22.7002 14.4922 23.5514C14.4922 24.4025 15.171 25.0925 16.0085 25.0925Z" fill="#666666"/>
</svg>
