<svg width="18" height="18" viewBox="0 0 18 18" fill="none" xmlns="http://www.w3.org/2000/svg">
<path d="M8.90355 0C3.99302 0 0 3.99302 0 8.90355C0 13.8141 3.99302 17.8071 8.90355 17.8071C13.8141 17.8071 17.8071 13.8141 17.8071 8.90355C17.8071 3.99302 13.8141 0 8.90355 0ZM8.90355 16.6841C4.61693 16.6841 1.12304 13.1975 1.12304 8.90355C1.12304 4.60959 4.60959 1.12304 8.90355 1.12304C13.1902 1.12304 16.6841 4.60959 16.6841 8.90355C16.6841 13.1975 13.1975 16.6841 8.90355 16.6841Z" fill="#2BB9FF"/>
<path d="M10.2394 6.7896H8.10347L7.03182 11.6708C7.03182 11.6708 6.52535 13.8434 8.10347 14.1444C9.9385 14.4967 10.2394 12.5883 10.2394 12.5883C10.2394 12.5883 9.05769 12.9846 9.15311 11.891C9.24853 10.7973 10.2394 6.7896 10.2394 6.7896Z" fill="#2BB9FF"/>
<path d="M9.51277 3.62601C8.86685 3.62601 8.3457 4.14716 8.3457 4.79309C8.3457 5.43902 8.86685 5.96016 9.51277 5.96016C10.1587 5.96016 10.6799 5.43902 10.6799 4.79309C10.6799 4.14716 10.1514 3.62601 9.51277 3.62601Z" fill="#2BB9FF"/>
</svg>
