<svg width="29" height="26" viewBox="0 0 29 26" fill="none" xmlns="http://www.w3.org/2000/svg">
<path d="M25.4641 26H3.54979C2.23541 26 1.04052 25.3392 0.419181 24.2699C-0.130469 23.3207 -0.130469 22.1913 0.395283 21.2421L11.3524 1.75416C11.9618 0.672828 13.1687 0 14.5069 0C15.8452 0 17.0401 0.672828 17.6615 1.75416L28.6186 21.2421C29.1563 22.1913 29.1444 23.3327 28.5947 24.2699C27.9734 25.3392 26.7665 26 25.4641 26ZM1.99644 22.1553C1.70966 22.6719 1.87695 23.1285 2.00839 23.3447C2.29516 23.8373 2.8926 24.1497 3.54979 24.1497H25.4641C26.1213 24.1497 26.7187 23.8373 27.0055 23.3447C27.1369 23.1285 27.3042 22.6719 27.0174 22.1553L16.0484 2.66728C15.7616 2.15065 15.1761 1.85028 14.5069 1.85028C13.8259 1.85028 13.2523 2.16266 12.9655 2.66728L1.99644 22.1553Z" fill="#212121"/>
<path d="M15.6631 8.56654L15.4122 16.9409C15.4002 17.4575 14.9701 17.854 14.4682 17.842C13.9783 17.8299 13.5959 17.4335 13.572 16.9409L13.3211 8.56654C13.2972 7.91774 13.811 7.37708 14.4563 7.36506C15.1015 7.34103 15.6392 7.85767 15.6512 8.50647C15.6631 8.5305 15.6631 8.55453 15.6631 8.56654Z" fill="#212121"/>
<path d="M14.5069 21.7948C15.2658 21.7948 15.8811 21.1762 15.8811 20.4131C15.8811 19.65 15.2658 19.0314 14.5069 19.0314C13.748 19.0314 13.1328 19.65 13.1328 20.4131C13.1328 21.1762 13.748 21.7948 14.5069 21.7948Z" fill="#212121"/>
</svg>
