<?xml version="1.0" encoding="utf-8"?>
<!-- Generator: Adobe Illustrator 25.4.1, SVG Export Plug-In . SVG Version: 6.00 Build 0)  -->
<svg version="1.1" id="Layer_1" xmlns="http://www.w3.org/2000/svg" xmlns:xlink="http://www.w3.org/1999/xlink" x="0px" y="0px"
	 viewBox="0 0 13.1 18.5" style="enable-background:new 0 0 13.1 18.5;" xml:space="preserve">
<style type="text/css">
	.st0{fill:#212121;}
</style>
<path class="st0" d="M10.9,5.8L6.6,1.7c-0.2-0.2-0.5-0.2-0.7,0L1.6,5.8C1.5,5.9,1.4,6,1.4,6.1v10.2c0,0.3,0.2,0.5,0.5,0.5h8.6
	c0.3,0,0.5-0.2,0.5-0.5V6.1C11,6,11,5.9,10.9,5.8z M2.4,15.9V6.4l3.8-3.6L10,6.4v9.5H2.4z"/>
<path class="st0" d="M6.2,7.4c0.7,0,1.3-0.6,1.3-1.3S6.9,4.9,6.2,4.9c-0.7,0-1.3,0.6-1.3,1.3S5.5,7.4,6.2,7.4z"/>
</svg>
