<svg width="15" height="24" viewBox="0 0 22 24" fill="none" xmlns="http://www.w3.org/2000/svg">
<path d="M14.7611 6.66049L8.04247 0.215014C7.74386 -0.0716713 7.26609 -0.0716713 6.96748 0.215014L0.238885 6.66049C0.0895819 6.79889 0 7.00649 0 7.21409V23.2289C0 23.654 0.348374 24 0.776377 24H14.2236C14.6516 24 15 23.654 15 23.2289V7.21409C15 7.00649 14.9204 6.79889 14.7611 6.66049ZM1.55275 22.4578V7.54032L7.50498 1.83627L13.4572 7.54032V22.4578H1.55275Z" fill="#212121"/>
<path d="M7.50498 9.17145C8.60991 9.17145 9.50564 8.28183 9.50564 7.18443C9.50564 6.08703 8.60991 5.19741 7.50498 5.19741C6.40004 5.19741 5.50431 6.08703 5.50431 7.18443C5.50431 8.28183 6.40004 9.17145 7.50498 9.17145Z" fill="#212121"/>
</svg>
