<svg width="29" height="29" viewBox="0 0 29 29" fill="none" xmlns="http://www.w3.org/2000/svg">
<path d="M28.7462 10.6637L26.8169 8.71825C26.4771 8.37779 25.9432 8.37779 25.6156 8.70609L19.1847 15.1384C18.8206 15.5032 18.5294 15.9652 18.3717 16.4759L17.7407 18.47C17.6194 18.8348 17.7286 19.2361 17.9955 19.5157C18.1897 19.7103 18.4566 19.8197 18.7236 19.8197C18.8328 19.8197 18.942 19.8076 19.039 19.7711L21.0169 19.1145C21.5022 18.9564 21.9512 18.6767 22.3152 18.312L28.7583 11.8675C28.916 11.7094 29.001 11.4906 29.001 11.2717C29.001 11.0407 28.916 10.8218 28.7462 10.6637ZM21.3445 17.3392C21.1382 17.5459 20.8713 17.7162 20.5801 17.8013L19.2332 18.2512L19.67 16.9015C19.7671 16.6097 19.9248 16.33 20.1432 16.1233L23.6257 12.6336L24.839 13.8495L21.3445 17.3392ZM25.8098 12.8767L24.6085 11.6608L26.2223 10.0558L27.4236 11.2717L25.8098 12.8767Z" fill="#212121"/>
<path d="M23.3456 20.1237C22.836 20.1237 22.4356 20.5371 22.4356 21.0356V26.7627C22.4356 26.9816 22.2536 27.1639 22.0352 27.1639H2.23264C2.01423 27.1639 1.83222 26.9816 1.83222 26.7627V2.23732C1.83222 2.01845 2.01423 1.83606 2.23264 1.83606H22.023C22.2414 1.83606 22.4234 2.01845 22.4234 2.23732V6.67547C22.4234 7.18616 22.836 7.58742 23.3335 7.58742C23.8431 7.58742 24.2435 7.174 24.2435 6.67547V2.23732C24.2435 1.00922 23.2485 0 22.0109 0H2.23264C0.99498 0 0 0.997065 0 2.23732V26.7627C0 27.9908 0.99498 29 2.23264 29H22.023C23.2485 29 24.2557 28.0029 24.2557 26.7627V21.0356C24.2557 20.5249 23.8431 20.1237 23.3456 20.1237Z" fill="#212121"/>
<path d="M18.5635 5.08267H5.62879C5.11917 5.08267 4.71875 5.49609 4.71875 5.99462C4.71875 6.50531 5.1313 6.90657 5.62879 6.90657H18.5635C19.0732 6.90657 19.4736 6.49315 19.4736 5.99462C19.4736 5.49609 19.0732 5.08267 18.5635 5.08267Z" fill="#212121"/>
<path d="M19.4736 11.6973C19.4736 11.1866 19.061 10.7853 18.5635 10.7853H5.62879C5.11917 10.7853 4.71875 11.1987 4.71875 11.6973C4.71875 12.208 5.1313 12.6092 5.62879 12.6092H18.5635C19.0732 12.6092 19.4736 12.1958 19.4736 11.6973Z" fill="#212121"/>
<path d="M13.807 16.476H5.62879C5.11917 16.476 4.71875 16.8894 4.71875 17.3879C4.71875 17.8864 5.1313 18.2999 5.62879 18.2999H13.807C14.3167 18.2999 14.7171 17.8864 14.7171 17.3879C14.7171 16.8894 14.3167 16.476 13.807 16.476Z" fill="#212121"/>
<path d="M4.71875 23.0784C4.71875 23.5891 5.1313 23.9903 5.62879 23.9903H18.5635C19.0732 23.9903 19.4736 23.5769 19.4736 23.0784C19.4736 22.5799 19.061 22.1664 18.5635 22.1664H5.62879C5.1313 22.1664 4.71875 22.5799 4.71875 23.0784Z" fill="#212121"/>
</svg>
