<svg width="13" height="12" viewBox="0 0 13 12" fill="none" xmlns="http://www.w3.org/2000/svg">
<path d="M6.1789 8.52291C6.28706 8.61456 6.41926 8.65768 6.55746 8.65768C6.69567 8.65768 6.83989 8.60916 6.94204 8.51213L9.79632 5.95148C10.0066 5.7628 10.0066 5.45013 9.79632 5.25606C9.58601 5.06739 9.23748 5.06739 9.02116 5.25606L7.03819 7.03504V0.490566C7.03819 0.221024 6.79182 0 6.49137 0C6.19092 0 5.95055 0.221024 5.95055 0.490566V6.97035L3.96157 5.25606C3.74525 5.06739 3.40273 5.07817 3.19242 5.27224C2.9821 5.46631 2.98811 5.77898 3.21044 5.96226L6.1789 8.52291Z" fill="#FF7E44"/>
<path d="M11.9532 8.16174C11.6527 8.16174 11.4064 8.38277 11.4064 8.65231V11.0243H1.59364V8.78708C1.59364 8.51754 1.34727 8.29651 1.04682 8.29651C0.74637 8.29651 0.5 8.51754 0.5 8.78708V11.5095C0.5 11.779 0.74637 12 1.04682 12H11.9532C12.2536 12 12.5 11.779 12.5 11.5095V8.64692C12.5 8.38277 12.2536 8.16174 11.9532 8.16174Z" fill="#FF7E44"/>
</svg>
