<svg width="13" height="15" viewBox="0 0 13 15" fill="none" xmlns="http://www.w3.org/2000/svg">
<path d="M6.83997 0.168444C6.72279 0.053889 6.57958 -1.84449e-05 6.42985 -1.84582e-05C6.28013 -1.84715e-05 6.12389 0.0606285 6.01323 0.181922L2.92109 3.38273C2.69325 3.61858 2.69325 4.00941 2.92109 4.252C3.14893 4.48785 3.5265 4.48785 3.76085 4.252L5.90907 2.02828L5.90907 10.2089C5.90907 10.5458 6.17597 10.8221 6.50146 10.8221C6.82695 10.8221 7.08734 10.5458 7.08734 10.2089L7.08734 2.10914L9.24207 4.252C9.47642 4.48785 9.84748 4.47437 10.0753 4.23179C10.3032 3.9892 10.2967 3.59836 10.0558 3.36925L6.83997 0.168444Z" fill="#212121"/>
<path d="M12.4076 10.2021C12.0821 10.2021 11.8152 10.4784 11.8152 10.8154V13.7803H1.18478V10.9838C1.18478 10.6469 0.917877 10.3706 0.592389 10.3706C0.2669 10.3706 0 10.6469 0 10.9838V14.3868C0 14.7237 0.2669 15 0.592389 15H12.4076C12.7331 15 13 14.7237 13 14.3868V10.8086C13 10.4784 12.7331 10.2021 12.4076 10.2021Z" fill="#212121"/>
</svg>
