<svg width="19" height="22" viewBox="0 0 19 22" fill="none" xmlns="http://www.w3.org/2000/svg">
<path d="M9.66869 1.01704C9.50307 0.856658 9.30064 0.781188 9.08901 0.781188C8.87738 0.781188 8.65655 0.866093 8.50013 1.0359L4.12951 5.51704C3.80746 5.84722 3.80746 6.39439 4.12951 6.73402C4.45155 7.0642 4.98523 7.0642 5.31647 6.73402L8.3529 3.62081L8.3529 15.0736C8.3529 15.5453 8.73016 15.9321 9.19022 15.9321C9.65029 15.9321 10.0183 15.5453 10.0183 15.0736L10.0183 3.73402L13.064 6.73402C13.3952 7.06421 13.9197 7.04534 14.2417 6.70572C14.5638 6.36609 14.5546 5.81892 14.2141 5.49817L9.66869 1.01704Z" fill="white"/>
<path d="M17.5377 15.0645C17.0776 15.0645 16.7004 15.4512 16.7004 15.9229V20.0739H1.67464V16.1588C1.67464 15.6871 1.29738 15.3003 0.837319 15.3003C0.377253 15.3003 0 15.6871 0 16.1588V20.9229C0 21.3946 0.377253 21.7814 0.837319 21.7814H17.5377C17.9977 21.7814 18.375 21.3946 18.375 20.9229V15.9135C18.375 15.4512 17.9977 15.0645 17.5377 15.0645Z" fill="white"/>
</svg>
