<svg width="52" height="33" viewBox="0 0 52 33" fill="none" xmlns="http://www.w3.org/2000/svg">
<g clip-path="url(#clip0)">
<path d="M30.6042 32.1917C30.6042 30.8511 30.591 29.5105 30.6094 28.1699C30.62 27.4771 30.678 26.7896 31.1765 26.2264C31.7382 25.5918 32.8327 25.3406 33.7294 25.6684C34.5364 25.962 35.0823 26.7579 35.1113 27.6384C35.1272 28.0641 35.1483 28.4872 35.056 28.9076C34.9188 29.5343 34.6182 29.9758 34.0485 30.3593C33.3127 30.8537 32.627 30.7427 31.8938 30.5391C31.7145 30.4888 31.5536 30.3619 31.3664 30.2588V32.1943H30.6042V32.1917ZM34.3782 28.1328C34.3914 27.604 34.3017 27.1069 34.0169 26.6442C33.6344 26.0228 32.3501 25.8588 31.8173 26.549C31.2187 27.3237 31.1897 28.6749 31.6565 29.4972C32.1734 30.4069 33.5052 30.4042 34.0722 29.5263C34.3518 29.0927 34.3623 28.6167 34.3782 28.1328Z" fill="#0033A1"/>
<path d="M51.999 29.6942C51.4794 30.6963 50.5616 30.7492 49.6069 30.691C49.359 30.6752 49.1032 30.6858 48.8606 30.5773C48.6443 30.4795 48.5072 30.1754 48.6258 29.9797C48.7129 29.8343 48.8078 29.9612 48.8922 29.993C49.454 30.2045 50.0289 30.26 50.6065 30.0961C50.9889 29.9877 51.2658 29.7497 51.2605 29.3134C51.2552 28.9379 51.0232 28.7158 50.7014 28.5572C50.1766 28.2954 49.6228 28.0944 49.1428 27.7507C48.5151 27.3038 48.5045 26.3202 49.148 25.8997C49.9392 25.3815 50.7937 25.4714 51.6429 25.7279C51.9172 25.8125 51.7194 26.0558 51.7062 26.2065C51.693 26.3731 51.5506 26.2409 51.4636 26.225C50.9124 26.1139 50.3665 25.9526 49.8074 26.1774C49.5384 26.2858 49.3696 26.4735 49.3432 26.7644C49.3195 27.0473 49.4513 27.2536 49.7019 27.3779C50.166 27.6079 50.6328 27.83 51.097 28.0574C51.4689 28.2399 51.788 28.4699 51.9146 28.893C51.9199 28.9115 51.9726 28.9168 52.0016 28.9274V29.6942H51.999Z" fill="#0033A1"/>
<path d="M13.8406 10.9149C15.4099 11.137 16.6494 11.8324 17.4037 13.2523C17.9206 14.2254 18.0366 15.2857 17.9891 16.3698C17.9522 17.1684 17.8441 17.959 17.5039 18.6914C16.863 20.0717 15.6841 20.783 14.2969 21.2114C12.9123 21.6371 11.4855 21.7455 10.0429 21.801C6.89659 21.92 3.74763 21.8142 0.601309 21.8566C0.0237358 21.8645 0 21.8328 0 21.251V0.586615C0 0.0524865 0.0421971 0.00753511 0.559111 0.00753511C3.50236 0.00753511 6.44297 -0.0162627 9.38622 0.0181119C10.9501 0.0366213 12.5167 0.152966 14.0279 0.597191C14.943 0.8669 15.8239 1.21593 16.5544 1.8902C17.3615 2.63587 17.7729 3.56663 17.9179 4.61637C18.0656 5.69256 18.0683 6.77404 17.7254 7.82908C17.1795 9.51079 15.9953 10.468 14.3206 10.8778C14.1677 10.9149 14.0015 10.9016 13.8406 10.9149ZM3.53401 10.9201C3.53401 13.8103 3.53928 16.7004 3.52873 19.5878C3.52873 19.8866 3.57884 19.9924 3.91378 19.9897C6.11858 19.9739 8.32074 19.9686 10.5255 19.9845C11.9365 19.995 13.511 18.9532 14.0675 17.565C14.645 16.1186 14.5343 14.7146 13.5479 13.4559C13.0257 12.7896 12.3664 12.311 11.5304 12.0836C10.7629 11.8747 9.98489 11.8509 9.19897 11.8721C8.92996 11.88 8.81656 11.7742 8.82447 11.5098C8.83238 11.1528 8.84557 10.7906 8.81919 10.4363C8.79546 10.074 8.98007 9.9603 9.29127 9.95765C9.68423 9.95501 10.0772 9.95501 10.4675 9.95765C11.5066 9.96294 12.3928 9.58482 13.1391 8.88411C14.5158 7.5911 14.8244 5.48896 13.8406 3.876C12.973 2.45606 11.6543 1.83203 10.0086 1.84261C8.00162 1.85319 5.99462 1.85583 3.98499 1.84261C3.63686 1.83996 3.52346 1.914 3.52609 2.28683C3.53928 5.16372 3.53401 8.04061 3.53401 10.9201Z" fill="#0033A1"/>
<path d="M51.4987 20.0416C51.6939 20.0734 51.7651 20.1976 51.7625 20.3854C51.7598 20.7794 51.7546 21.1707 51.7625 21.5647C51.7677 21.8027 51.6464 21.8952 51.4275 21.8978C51.1849 21.8978 50.9423 21.8978 50.6996 21.8978C48.0096 21.8978 45.3221 21.882 42.6347 21.9005C40.9468 21.9111 39.4462 20.6868 39.1244 19.0157C39.1086 18.9311 39.0849 18.8491 39.0321 18.7645C38.9293 19.5551 38.5706 20.1976 38.0326 20.7661C37.3495 21.4906 36.5029 21.8423 35.5403 21.8529C33.1061 21.8793 30.6718 21.8899 28.2376 21.8529C26.6499 21.8291 25.2627 20.7185 24.8987 19.1505C24.8091 18.7645 24.7827 18.3784 24.7853 17.9844C24.7906 15.7422 24.788 13.4999 24.788 11.2576C24.788 9.54151 26.0249 7.99201 27.7048 7.60331C28.227 7.48432 28.3589 7.5848 28.3615 8.10835C28.3615 11.1122 28.3853 14.1186 28.351 17.1224C28.3325 18.6296 29.1343 19.4149 30.2551 19.7375C31.6186 20.1315 32.9821 20.1183 34.2797 19.4282C34.9812 19.0553 35.3715 18.4683 35.4533 17.6751C35.4638 17.5825 35.4823 17.4926 35.4955 17.4027C35.506 17.3234 35.5219 17.2441 35.5219 17.1647C35.5219 14.1054 35.5219 11.0461 35.5219 7.98408C35.5219 7.89153 35.5087 7.80163 35.5034 7.70908C35.7065 7.55043 35.9544 7.60596 36.1522 7.64826C37.2071 7.87038 37.9904 8.49441 38.5442 9.40401C38.7763 9.78742 38.953 10.2026 38.9978 10.6891C39.1218 10.6018 39.106 10.4881 39.1297 10.3877C39.491 8.81964 40.4827 7.94177 41.8857 7.57952C42.2154 7.4949 42.5714 7.50019 42.9169 7.49755C45.6861 7.49226 48.4526 7.49226 51.2218 7.4949C51.6992 7.4949 51.7598 7.55572 51.7625 8.02903C51.7625 8.34104 51.7519 8.65306 51.7651 8.96508C51.7756 9.248 51.6622 9.34584 51.3774 9.3432C49.2887 9.33262 47.2025 9.33262 45.1138 9.3432C44.5125 9.34584 43.9428 9.44896 43.4285 9.83766C42.8035 10.3083 42.2708 11.5141 42.8378 12.5427C43.2703 13.3306 43.9217 13.7352 44.821 13.7379C45.4672 13.7379 46.1133 13.7352 46.7595 13.7379C47.1498 13.7405 47.2236 13.8172 47.2263 14.2006C47.2289 14.547 47.2025 14.896 47.2315 15.2398C47.2606 15.5809 47.105 15.6575 46.8096 15.6523C46.2215 15.6417 45.6333 15.6523 45.0452 15.6523C44.494 15.6523 43.9824 15.7607 43.5129 16.078C42.6795 16.6412 42.3525 17.8469 42.7956 18.7486C43.12 19.4097 43.6184 19.8407 44.3358 20.0099C44.378 20.0231 44.4202 20.0496 44.4624 20.0496C46.8043 20.0496 49.1515 20.0443 51.4987 20.0416ZM39.0611 11.7362V17.6883C39.2695 16.9638 39.5754 16.3027 40.1134 15.7554C40.6594 15.2001 41.3345 14.9039 42.0782 14.7109C40.4642 14.3302 39.4831 13.3412 39.0611 11.7362Z" fill="#0033A1"/>
<path d="M19.6297 10.9382C19.6297 7.47169 19.6297 4.00779 19.6297 0.54125C19.6297 0.0652938 19.693 0.00976562 20.1677 0.00976562C20.9747 0.00976562 21.7817 0.00976562 22.5888 0.00976562C23.0213 0.00976562 23.1268 0.115534 23.1268 0.530673C23.1268 2.95805 23.1505 5.38278 23.1162 7.81015C23.0819 10.4306 23.0846 13.0536 23.103 15.674C23.1162 17.5329 23.1057 19.3917 23.1241 21.2506C23.1294 21.8059 23.0767 21.8561 22.5202 21.8561C21.7132 21.8561 20.9062 21.8588 20.0991 21.8561C19.6851 21.8561 19.6218 21.79 19.6191 21.3722C19.6191 17.8951 19.6191 14.418 19.6191 10.9382H19.6297Z" fill="#0033A1"/>
<path d="M41.6061 28.3067C41.076 28.3067 40.5459 28.312 40.0158 28.3041C39.8391 28.3014 39.7864 28.3411 39.8049 28.5367C39.8972 29.5865 40.5328 30.1788 41.593 30.1788C41.6958 30.1788 41.8013 30.1894 41.9042 30.1761C42.0703 30.155 42.1969 30.1523 42.1758 30.3877C42.16 30.5675 42.1969 30.7341 41.9174 30.7076C41.5086 30.668 41.0892 30.7579 40.6831 30.6309C39.8682 30.3797 39.3512 29.8721 39.1666 29.0153C38.953 28.0291 39.0321 27.1036 39.6809 26.3024C40.2769 25.5647 41.0892 25.4087 41.9727 25.6123C42.7481 25.7894 43.3151 26.4796 43.4338 27.3125C43.5736 28.3093 43.5736 28.3093 42.5767 28.3093C42.2497 28.3067 41.9279 28.3067 41.6061 28.3067ZM41.2897 27.7514C41.7037 27.7514 42.1178 27.7541 42.5319 27.7488C42.6189 27.7488 42.7587 27.8096 42.756 27.6298C42.7376 26.9608 42.4237 26.2627 41.6747 26.0988C40.8519 25.9163 39.9974 26.5615 39.8365 27.4447C39.7917 27.688 39.8233 27.7699 40.0844 27.7593C40.4827 27.7355 40.8862 27.7514 41.2897 27.7514Z" fill="#0033A1"/>
<path d="M23.0914 28.3051C22.5481 28.3051 22.0075 28.3051 21.4642 28.3077C21.3613 28.3077 21.2163 28.2654 21.2374 28.4637C21.3112 29.1248 21.5143 29.7224 22.1473 30.045C22.5376 30.2433 22.978 30.1825 23.4026 30.1692C23.5055 30.1666 23.6321 30.1137 23.6057 30.2882C23.5846 30.4257 23.7217 30.6769 23.4897 30.6849C22.9886 30.7034 22.4822 30.7589 21.9837 30.5844C21.2163 30.3173 20.7732 29.7911 20.6044 29.0058C20.4014 28.0565 20.4541 27.1549 21.0712 26.351C21.662 25.5816 22.4637 25.3965 23.3551 25.6027C24.1991 25.7957 24.6738 26.3907 24.8611 27.2262C25.0852 28.2416 25.0404 28.3024 24.0277 28.3024C23.7138 28.3051 23.4026 28.3051 23.0914 28.3051ZM22.7064 27.7498C23.131 27.7498 23.5556 27.7498 23.9802 27.7498C24.0778 27.7498 24.2123 27.7789 24.2017 27.6176C24.1622 26.9724 23.8879 26.2453 23.0703 26.0919C22.2079 25.9279 21.2875 26.7001 21.2479 27.5938C21.24 27.763 21.3218 27.7524 21.4299 27.7524C21.8545 27.7472 22.2791 27.7472 22.7064 27.7498Z" fill="#0033A1"/>
<path d="M29.5718 25.6668C29.0601 26.3675 28.5775 27.055 28.0685 27.7214C27.9103 27.9276 27.9314 28.0572 28.0738 28.2502C28.625 29.0011 29.1604 29.7653 29.7036 30.5321C29.134 30.7014 28.952 30.6379 28.6461 30.1805C28.2742 29.6252 27.905 29.0699 27.5068 28.475C27.098 29.0461 26.6707 29.5723 26.3252 30.1514C26.0668 30.585 25.745 30.6776 25.2598 30.5612C25.6369 30.0245 26.0061 29.5009 26.3754 28.98C26.5626 28.7156 26.7419 28.4485 26.945 28.1947C27.0795 28.0281 27.0505 27.9117 26.9292 27.7478C26.4175 27.0709 25.9217 26.3781 25.4075 25.6747C25.9402 25.5399 26.3041 25.6562 26.5758 26.1322C26.8422 26.5976 27.185 27.0206 27.5094 27.4913C27.8522 27.0074 28.1977 26.5738 28.4799 26.1031C28.7357 25.6747 29.0628 25.5293 29.5718 25.6668Z" fill="#0033A1"/>
<path d="M44.478 29.897C45.1135 30.1746 45.7412 30.2804 46.3874 30.1006C46.7197 30.008 47.0071 29.8282 47.0441 29.4342C47.0836 28.9953 46.9465 28.7891 46.5192 28.5643C46.0208 28.3025 45.4986 28.091 45.0107 27.8001C44.1799 27.3057 44.4041 26.1422 45.1215 25.7932C45.8942 25.4177 46.6617 25.5023 47.4397 25.7244C47.7298 25.8064 47.5346 26.0391 47.5267 26.1925C47.5161 26.3855 47.3711 26.2453 47.292 26.2295C46.7408 26.1184 46.1948 25.9677 45.6331 26.1739C45.3456 26.2797 45.19 26.4701 45.1452 26.7768C45.103 27.0835 45.2665 27.2554 45.5039 27.3744C46.0181 27.6335 46.5403 27.8689 47.052 28.1359C47.6638 28.4559 47.9091 28.9927 47.7667 29.659C47.6533 30.1931 47.2339 30.4337 46.7803 30.5792C46.063 30.8119 45.3272 30.7246 44.6019 30.5607C44.4305 30.521 44.383 30.4232 44.4199 30.2592C44.4463 30.1455 44.4569 30.0318 44.478 29.897Z" fill="#0033A1"/>
<path d="M36.1736 29.1996C36.1789 28.4064 36.1394 27.6131 36.4057 26.841C36.651 26.1218 37.4949 25.5057 38.2518 25.5295C38.3837 25.5348 38.4602 25.5718 38.4286 25.704C38.3943 25.8336 38.5631 26.0557 38.294 26.0848C37.342 26.1932 36.9807 27.0948 36.9411 27.8617C36.8989 28.6814 36.9068 29.4984 36.92 30.3155C36.9253 30.6328 36.7591 30.6037 36.5613 30.5984C36.3609 30.5931 36.1394 30.6645 36.171 30.3075C36.2 29.94 36.1736 29.5698 36.1736 29.1996Z" fill="#0033A1"/>
<path d="M51.4996 20.0392C49.1524 20.0445 46.8052 20.0498 44.4606 20.0498C44.4184 20.0498 44.3762 20.0233 44.334 20.0101C46.6812 20.0048 49.0284 20.0022 51.373 19.9995C51.4152 19.9995 51.4574 20.026 51.4996 20.0392Z" fill="#0033A1"/>
<path d="M39.0605 11.7358C39.4825 13.3382 40.4636 14.3298 42.0776 14.7106C41.3339 14.9036 40.6588 15.2024 40.1128 15.755C39.5748 16.3024 39.2689 16.9608 39.0605 17.6879V11.7358Z" fill="#4AC1E0"/>
</g>
<defs>
<clipPath id="clip0">
<rect width="52" height="32.1905" fill="white"/>
</clipPath>
</defs>
</svg>
