<?xml version="1.0" encoding="utf-8"?>
<!-- Generator: Adobe Illustrator 25.3.1, SVG Export Plug-In . SVG Version: 6.00 Build 0)  -->
<svg version="1.0" id="Layer_1" xmlns="http://www.w3.org/2000/svg" xmlns:xlink="http://www.w3.org/1999/xlink" x="0px" y="0px"
	 viewBox="0 0 648 426" style="enable-background:new 0 0 648 426;" xml:space="preserve">
<style type="text/css">
	.st0{fill:#0033A1;}
	.st1{fill:none;}
	.st2{fill:#4AC1E0;}
	.st3{fill:#FFFFFF;}
</style>
<g>
	<path class="st0" d="M64.2,393.8c-24.5,0-44.5-18.8-44.5-46.4v-0.3c0-25.7,18.1-46.4,42.8-46.4c26.4,0,41.4,21.6,41.4,45.2
		c0,3.6-2.9,6.2-6.2,6.2H33.2c1.9,19.3,15.5,30.2,31.4,30.2c11,0,19.1-4.3,25.7-10.3c1-0.9,2.2-1.6,3.8-1.6c3.3,0,5.9,2.6,5.9,5.7
		c0,1.6-0.7,3.1-2.1,4.3C89.4,388.5,79.4,393.8,64.2,393.8z M90.6,342.3c-1.4-16.2-10.7-30.4-28.5-30.4c-15.5,0-27.3,12.9-29,30.4
		H90.6z"/>
	<path class="st0" d="M116.7,382.3l29.2-35.9l-27.4-33.6c-1.4-1.6-2.1-3.1-2.1-4.8c0-3.8,2.8-6.2,6.2-6.2c2.6,0,4.3,1.2,5.9,3.1
		l25.7,32.6l25.5-32.4c1.6-1.9,3.3-3.3,5.7-3.3c3.4,0,6,2.6,6,6c0,1.7-0.7,3.1-1.7,4.3l-27.8,34l29,35.5c1.2,1.6,1.9,3.1,1.9,4.8
		c0,3.6-2.8,6.2-6.2,6.2c-2.6,0-4.3-1.2-5.9-3.1l-27.1-34.3l-26.9,34.2c-1.6,1.9-3.3,3.3-5.7,3.3c-3.4,0-6-2.8-6-6
		C114.9,384.9,115.5,383.5,116.7,382.3z"/>
	<path class="st0" d="M214.5,308.4c0-3.8,2.9-6.7,6.6-6.7c3.8,0,6.7,2.9,6.7,6.7v12.1c7.2-10.7,17.8-19.8,34.2-19.8
		c21.4,0,42.6,16.9,42.6,46.2v0.3c0,29.2-21,46.4-42.6,46.4c-16.6,0-27.3-9-34.2-19v38.8c0,3.8-2.8,6.7-6.6,6.7
		c-3.8,0-6.7-2.9-6.7-6.7V308.4z M290.9,347.4v-0.3c0-21-14.5-34.5-31.4-34.5c-16.6,0-32.3,14-32.3,34.3v0.3
		c0,20.7,15.7,34.5,32.3,34.5C276.8,381.8,290.9,369,290.9,347.4z"/>
	<path class="st0" d="M325.6,308.4c0-3.6,2.9-6.7,6.6-6.7c3.8,0,6.7,2.9,6.7,6.7v16.7c6.6-14.8,19.5-23.8,30.7-23.8
		c4,0,6.6,2.9,6.6,6.7c0,3.6-2.4,6.2-5.9,6.7c-17.3,2.1-31.4,15-31.4,40.7v30.4c0,3.6-2.8,6.7-6.6,6.7c-3.8,0-6.7-2.9-6.7-6.7V308.4
		z"/>
	<path class="st0" d="M427.2,393.8c-24.5,0-44.5-18.8-44.5-46.4v-0.3c0-25.7,18.1-46.4,42.8-46.4c26.4,0,41.4,21.6,41.4,45.2
		c0,3.6-2.9,6.2-6.2,6.2h-64.5c1.9,19.3,15.5,30.2,31.4,30.2c11,0,19.1-4.3,25.7-10.3c1-0.9,2.2-1.6,3.8-1.6c3.3,0,5.9,2.6,5.9,5.7
		c0,1.6-0.7,3.1-2.1,4.3C452.4,388.5,442.4,393.8,427.2,393.8z M453.6,342.3c-1.4-16.2-10.7-30.4-28.5-30.4
		c-15.5,0-27.3,12.9-29,30.4H453.6z"/>
	<path class="st0" d="M482.1,382.3c-1.2-0.9-2.4-2.6-2.4-4.8c0-3.1,2.6-5.7,5.9-5.7c1.2,0,2.4,0.3,3.3,1c9.1,6.2,18.6,9.5,28.3,9.5
		c10.7,0,18.5-5.5,18.5-14.1v-0.3c0-9-10.5-12.4-22.3-15.7c-14-4-29.5-8.8-29.5-25.2v-0.3c0-15.4,12.8-25.5,30.4-25.5
		c9.5,0,19.8,2.9,28.5,7.6c1.7,1,3.3,2.9,3.3,5.5c0,3.1-2.6,5.7-5.9,5.7c-1.2,0-2.2-0.3-2.9-0.7c-7.6-4.3-15.7-6.9-23.3-6.9
		c-10.5,0-17.2,5.5-17.2,12.9v0.3c0,8.5,11,11.7,22.9,15.4c13.8,4.1,28.6,9.5,28.6,25.5v0.3c0,16.9-14,26.7-31.7,26.7
		C504.7,393.5,491.7,389.2,482.1,382.3z"/>
	<path class="st0" d="M562.8,382.3c-1.2-0.9-2.4-2.6-2.4-4.8c0-3.1,2.6-5.7,5.9-5.7c1.2,0,2.4,0.3,3.3,1c9.1,6.2,18.6,9.5,28.3,9.5
		c10.7,0,18.5-5.5,18.5-14.1v-0.3c0-9-10.5-12.4-22.3-15.7c-14-4-29.5-8.8-29.5-25.2v-0.3c0-15.4,12.8-25.5,30.4-25.5
		c9.5,0,19.8,2.9,28.5,7.6c1.7,1,3.3,2.9,3.3,5.5c0,3.1-2.6,5.7-5.9,5.7c-1.2,0-2.2-0.3-2.9-0.7c-7.6-4.3-15.7-6.9-23.3-6.9
		c-10.5,0-17.2,5.5-17.2,12.9v0.3c0,8.5,11,11.7,22.9,15.4c13.8,4.1,28.6,9.5,28.6,25.5v0.3c0,16.9-14,26.7-31.7,26.7
		C585.4,393.5,572.4,389.2,562.8,382.3z"/>
	<path class="st0" d="M225.9,33.4c0-13.1,10.6-23.8,23.8-23.8c13.1,0,23.8,10.6,23.8,23.8v220.4c0,13.1-10.6,23.8-23.8,23.8
		c-13.1,0-23.8-10.6-23.8-23.8V33.4z"/>
	<path class="st0" d="M455.6,254.2c0,13.3-10.7,24-24,24s-24-10.7-24-24v-1.9c-11.1,14.2-25.3,27.2-49.6,27.2
		c-36.3,0-57.5-24-57.5-62.9v-87.5c0-13.3,10.7-24,24-24c13.3,0,24,10.7,24,24v72.4c0,22.8,10.7,34.5,29.1,34.5
		c18.3,0,30-11.7,30-34.5v-72.4c0-13.3,10.7-24,24-24s24,10.7,24,24V254.2z"/>
	<g>
		<path class="st0" d="M564,281.1c-50.9,0.5-88.9-34.8-89.4-86.6l0-0.6c-0.5-48.4,33.5-88.5,82.8-89.1c56.6-0.6,82,45.6,82.4,80.7
			c0.1,13.9-9.6,23.2-22.2,23.3l-95.1,1c5,21.8,20.3,33,41.8,32.7c13.3-0.1,24.3-4.4,34-11.7c3.5-2.6,6.6-3.9,11.7-3.9
			c10.7-0.1,18.7,8,18.8,18.8c0.1,6.3-2.7,11.1-6.2,14.3C607.9,272.8,588.7,280.9,564,281.1z M593.9,179
			c-3.1-21.5-15.9-35.9-36.1-35.6c-19.9,0.2-32.7,14.6-36.3,36.4L593.9,179z"/>
	</g>
	<line class="st0" x1="517.1" y1="180.8" x2="597" y2="179.8"/>
	<path class="st1" d="M61.9,179c0,0.3,0,0.7,0,1v1.3c0.3,24.2,20.1,43.8,44.4,43.8c24.5,0,44.4-19.9,44.4-44.4
		c0-24.3-19.5-44-43.6-44.4"/>
	<path class="st0" d="M61.9,32.3c0-14.4-11.7-26-26-26h0c-14.4,0-26,11.7-26,26v149.8h0.1c0.8,52.6,43.6,95,96.4,95
		c53.3,0,96.5-43.2,96.5-96.5c0-53-42.7-96-95.7-96.5v52.1c24.2,0.4,43.6,20.1,43.6,44.4c0,24.5-19.9,44.4-44.4,44.4
		c-24.3,0-44.1-19.6-44.4-43.8V180c0-0.3,0-0.7,0-1l-0.1,0l0.7-84.3L61.9,32.3z"/>
	<g>
		<circle class="st2" cx="86.6" cy="112.4" r="31.7"/>
		<path class="st3" d="M86.6,84.2c15.6,0,28.2,12.6,28.2,28.2c0,15.6-12.6,28.2-28.2,28.2S58.4,128,58.4,112.4
			C58.4,96.8,71,84.2,86.6,84.2 M86.6,77.2c-19.4,0-35.2,15.8-35.2,35.2s15.8,35.2,35.2,35.2s35.2-15.8,35.2-35.2
			S106,77.2,86.6,77.2L86.6,77.2z"/>
	</g>
</g>
</svg>
