<svg width="73" height="48" viewBox="0 0 73 48" fill="none" xmlns="http://www.w3.org/2000/svg">
<path d="M6.30364 44.852C3.46468 44.852 1.146 42.6763 1.146 39.4822V39.4428C1.146 36.4686 3.24451 34.073 6.10318 34.073C9.16115 34.073 10.9005 36.5681 10.9005 39.3039C10.9005 39.7229 10.5609 40.0226 10.1809 40.0226H2.70569C2.92585 42.2585 4.50525 43.5165 6.3442 43.5165C7.62347 43.5165 8.56323 43.0177 9.32222 42.3187C9.44157 42.2192 9.58178 42.1393 9.76139 42.1393C10.1415 42.1393 10.4416 42.439 10.4416 42.7978C10.4416 42.9772 10.3616 43.1577 10.2017 43.2966C9.22256 44.2328 8.06264 44.852 6.30364 44.852ZM9.36277 38.8827C9.20287 37.0056 8.1229 35.3692 6.06494 35.3692C4.26538 35.3692 2.90615 36.8667 2.70685 38.8827H9.36277Z" fill="#666666"/>
<path d="M12.3814 43.514L15.7592 39.3617L12.5807 35.4686C12.4208 35.2892 12.3408 35.1086 12.3408 34.9096C12.3408 34.471 12.6606 34.1909 13.0604 34.1909C13.3605 34.1909 13.5598 34.3309 13.7406 34.5508L16.7186 38.3236L19.6769 34.5705C19.8565 34.3506 20.057 34.1909 20.3363 34.1909C20.736 34.1909 21.0362 34.4907 21.0362 34.8899C21.0362 35.089 20.9562 35.2498 20.8357 35.3887L17.6178 39.3212L20.9759 43.4342C21.1161 43.6136 21.1961 43.7941 21.1961 43.9932C21.1961 44.4121 20.8763 44.7118 20.4765 44.7118C20.1764 44.7118 19.9771 44.5718 19.7963 44.3519L16.6584 40.3789L13.5401 44.3322C13.3605 44.5521 13.1601 44.7118 12.8808 44.7118C12.481 44.7118 12.1809 44.3924 12.1809 44.0128C12.1821 43.8138 12.2412 43.6541 12.3814 43.514Z" fill="#666666"/>
<path d="M23.7166 34.9686C23.7166 34.53 24.0561 34.1898 24.4767 34.1898C24.9159 34.1898 25.2565 34.5288 25.2565 34.9686V36.3666C26.0955 35.1283 27.3157 34.0706 29.2149 34.0706C31.6935 34.0706 34.1524 36.0275 34.1524 39.4207V39.4601C34.1524 42.8336 31.7132 44.8299 29.2149 44.8299C27.296 44.8299 26.0561 43.7918 25.2565 42.6333V47.1259C25.2565 47.5646 24.9367 47.9048 24.4964 47.9048C24.0561 47.9048 23.7166 47.5657 23.7166 47.1259V34.9686ZM32.5718 39.4809V39.4415C32.5718 37.0054 30.8928 35.4489 28.9333 35.4489C27.0144 35.4489 25.1951 37.0656 25.1951 39.4219V39.4612C25.1951 41.8568 27.0144 43.4539 28.9333 43.4539C30.9322 43.4539 32.5718 41.9772 32.5718 39.4809Z" fill="#666666"/>
<path d="M36.5901 34.9687C36.5901 34.5497 36.9296 34.1898 37.3502 34.1898C37.7894 34.1898 38.1301 34.5289 38.1301 34.9687V36.9048C38.8902 35.1874 40.3885 34.1493 41.6886 34.1493C42.1487 34.1493 42.4488 34.4884 42.4488 34.9281C42.4488 35.3471 42.1695 35.6468 41.7698 35.707C39.7709 35.9466 38.1312 37.4441 38.1312 40.4183V43.9319C38.1312 44.3508 37.8114 44.7107 37.3711 44.7107C36.9308 44.7107 36.5912 44.3716 36.5912 43.9319V34.9687H36.5901Z" fill="#666666"/>
<path d="M48.3644 44.852C45.5255 44.852 43.2068 42.6763 43.2068 39.4822V39.4428C43.2068 36.4686 45.3053 34.073 48.164 34.073C51.222 34.073 52.9613 36.5681 52.9613 39.3039C52.9613 39.7229 52.6217 40.0226 52.2417 40.0226H44.7653C44.9855 42.2585 46.5649 43.5165 48.4038 43.5165C49.6831 43.5165 50.6229 43.0177 51.3819 42.3187C51.5012 42.2192 51.6414 42.1393 51.821 42.1393C52.2011 42.1393 52.5012 42.439 52.5012 42.7978C52.5012 42.9772 52.4213 43.1577 52.2614 43.2966C51.2834 44.2328 50.1234 44.852 48.3644 44.852ZM51.4224 38.8827C51.2625 37.0056 50.1825 35.3692 48.1246 35.3692C46.325 35.3692 44.9658 36.8667 44.7665 38.8827H51.4224Z" fill="#666666"/>
<path d="M54.7214 43.5142C54.5812 43.4147 54.4421 43.2145 54.4421 42.9552C54.4421 42.5953 54.7423 42.2967 55.1223 42.2967C55.2625 42.2967 55.4016 42.3372 55.5024 42.4171C56.5615 43.1358 57.6612 43.5154 58.7805 43.5154C60.0193 43.5154 60.9196 42.8765 60.9196 41.8789V41.8396C60.9196 40.8015 59.7006 40.4022 58.3414 40.0226C56.7226 39.5632 54.923 39.0042 54.923 37.1074V37.0681C54.923 35.2916 56.4028 34.1135 58.441 34.1135C59.5407 34.1135 60.74 34.4526 61.7389 34.9919C61.9382 35.1123 62.1189 35.331 62.1189 35.6307C62.1189 35.9907 61.8188 36.2892 61.4387 36.2892C61.2985 36.2892 61.1792 36.2487 61.0992 36.2094C60.2197 35.7106 59.28 35.4108 58.4005 35.4108C57.1814 35.4108 56.4016 36.0497 56.4016 36.9084V36.9477C56.4016 37.9256 57.6809 38.3052 59.0598 38.7242C60.6589 39.2033 62.3785 39.8224 62.3785 41.6787V41.7181C62.3785 43.6751 60.7597 44.8127 58.7006 44.8127C57.3402 44.8115 55.8408 44.3127 54.7214 43.5142Z" fill="#666666"/>
<path d="M64.0771 43.5142C63.9369 43.4147 63.7979 43.2145 63.7979 42.9552C63.7979 42.5953 64.098 42.2967 64.478 42.2967C64.6183 42.2967 64.7573 42.3372 64.8581 42.4171C65.9172 43.1358 67.0169 43.5154 68.1363 43.5154C69.375 43.5154 70.2753 42.8765 70.2753 41.8789V41.8396C70.2753 40.8015 69.0563 40.4022 67.6971 40.0226C66.0783 39.5632 64.2787 39.0042 64.2787 37.1074V37.0681C64.2787 35.2916 65.7585 34.1135 67.7967 34.1135C68.8964 34.1135 70.0957 34.4526 71.0946 34.9919C71.2939 35.1123 71.4746 35.331 71.4746 35.6307C71.4746 35.9907 71.1745 36.2892 70.7945 36.2892C70.6542 36.2892 70.5349 36.2487 70.4549 36.2094C69.5754 35.7106 68.6357 35.4108 67.7562 35.4108C66.5372 35.4108 65.7573 36.0497 65.7573 36.9084V36.9477C65.7573 37.9256 67.0366 38.3052 68.4155 38.7242C70.0146 39.2033 71.7342 39.8224 71.7342 41.6787V41.7181C71.7342 43.6751 70.1154 44.8127 68.0563 44.8127C66.6959 44.8115 65.1965 44.3127 64.0771 43.5142Z" fill="#666666"/>
<path d="M25.043 3.13961C25.043 1.62009 26.2747 0.389893 27.7962 0.389893C29.3176 0.389893 30.5494 1.62009 30.5494 3.13961V28.6451C30.5494 30.1646 29.3176 31.3948 27.7962 31.3948C26.2747 31.3948 25.043 30.1646 25.043 28.6451V3.13961Z" fill="#666666"/>
<path d="M51.6611 28.6951C51.6611 30.2308 50.4154 31.4749 48.8778 31.4749C47.3401 31.4749 46.0944 30.2308 46.0944 28.6951V28.4752C44.8128 30.1208 43.1639 31.6207 40.3446 31.6207C36.1325 31.6207 33.6794 28.8409 33.6794 24.3413V14.2093C33.6794 12.6735 34.9251 11.4294 36.4628 11.4294C38.0005 11.4294 39.2461 12.6735 39.2461 14.2093V22.5857C39.2461 25.2197 40.4918 26.5726 42.6158 26.5726C44.7398 26.5726 46.0956 25.2197 46.0956 22.5857V14.2093C46.0956 12.6735 47.3412 11.4294 48.8789 11.4294C50.4166 11.4294 51.6623 12.6735 51.6623 14.2093V28.6951H51.6611Z" fill="#666666"/>
<path d="M64.2186 31.8104C58.3229 31.874 53.9196 27.7877 53.8558 21.7894L53.8547 21.7165C53.7944 16.121 57.7365 11.4687 63.4504 11.4085C70.0055 11.3379 72.9569 16.6835 72.9997 20.7432C73.0171 22.353 71.8931 23.4258 70.4284 23.4409L59.4051 23.5589C59.9822 26.0772 61.754 27.3745 64.2441 27.3479C65.7818 27.3317 67.0588 26.8422 68.1851 25.9892C68.5848 25.6918 68.9499 25.5425 69.535 25.5356C70.7807 25.5217 71.7054 26.4637 71.7193 27.7066C71.7274 28.4381 71.403 28.9901 71.0043 29.3604C69.2986 30.8417 67.075 31.7803 64.2186 31.8104ZM67.681 19.9945C67.3241 17.5109 65.8421 15.8444 63.4979 15.8687C61.1908 15.893 59.7064 17.5549 59.2951 20.0836L67.681 19.9945Z" fill="#666666"/>
<path d="M6.03599 3.01358C6.03599 1.3494 4.68487 0 3.01741 0C1.35112 0 0 1.3494 0 3.01358V20.3452H0.00579381C0.0950184 26.4348 5.06263 31.344 11.1809 31.344C17.3548 31.344 22.3595 26.3457 22.3595 20.1797C22.3595 14.0449 17.4058 9.06737 11.2759 9.01645V15.0401C14.0755 15.0911 16.3293 17.3721 16.3293 20.1797C16.3293 23.0197 14.0245 25.3215 11.1809 25.3215C8.36278 25.3215 6.07539 23.059 6.03599 20.2537V20.1056C6.03599 20.0662 6.03946 20.0281 6.04062 19.9887H6.03251L6.11015 10.2316L6.03599 3.01358Z" fill="#666666"/>
<path d="M8.90051 15.9488C6.87499 15.9488 5.22607 14.3031 5.22607 12.279C5.22607 10.2561 6.87383 8.60925 8.90051 8.60925C10.9272 8.60925 12.5749 10.2549 12.5749 12.279C12.5749 14.3031 10.926 15.9488 8.90051 15.9488Z" fill="#DADADA"/>
<path d="M8.90055 9.0142C10.7059 9.0142 12.1694 10.4759 12.1694 12.2789C12.1694 14.082 10.7059 15.5436 8.90055 15.5436C7.0952 15.5436 5.63169 14.082 5.63169 12.2789C5.63169 10.4759 7.0952 9.0142 8.90055 9.0142ZM8.90055 8.2041C6.6514 8.2041 4.82056 10.0315 4.82056 12.2789C4.82056 14.5264 6.65024 16.3537 8.90055 16.3537C11.1509 16.3537 12.9805 14.5264 12.9805 12.2789C12.9805 10.0315 11.1497 8.2041 8.90055 8.2041Z" fill="white"/>
</svg>
