<svg width="17" height="17" viewBox="0 0 17 17" fill="none" xmlns="http://www.w3.org/2000/svg">
<path d="M16.0384 7.52618H9.49608V0.978227C9.49608 0.440643 9.05522 0 8.50856 0C7.9619 0 7.52986 0.440643 7.52986 0.978227V7.51737H0.978705C0.440858 7.52618 0 7.96682 0 8.50441C0 9.0508 0.440858 9.48263 0.978705 9.48263H7.52104V16.0218C7.52104 16.5682 7.9619 17 8.49974 17C9.03759 17 9.47845 16.5594 9.47845 16.0218V9.48263H16.0208C16.5674 9.48263 16.9995 9.04199 16.9995 8.50441C17.0171 7.96682 16.5763 7.52618 16.0384 7.52618Z" fill="#212121"/>
</svg>
