<svg width="32" height="29" viewBox="0 0 32 29" fill="none" xmlns="http://www.w3.org/2000/svg">
<path d="M28.0837 28.1666H3.91127C2.46145 28.1666 1.14344 27.455 0.458066 26.3034C-0.148222 25.2812 -0.148222 24.065 0.431706 23.0428L12.5179 2.05572C13.1901 0.89121 14.5213 0.166626 15.9975 0.166626C17.4737 0.166626 18.7917 0.89121 19.4771 2.05572L31.5633 23.0428C32.1564 24.065 32.1432 25.2942 31.5369 26.3034C30.8516 27.455 29.5204 28.1666 28.0837 28.1666ZM2.19785 24.0261C1.88153 24.5825 2.06605 25.0742 2.21103 25.3071C2.52735 25.8376 3.18636 26.174 3.91127 26.174H28.0837C28.8086 26.174 29.4676 25.8376 29.784 25.3071C29.9289 25.0742 30.1135 24.5825 29.7971 24.0261L17.6977 3.03908C17.3814 2.48271 16.7356 2.15923 15.9975 2.15923C15.2462 2.15923 14.6136 2.49565 14.2973 3.03908L2.19785 24.0261Z" fill="#FF881A"/>
<path d="M17.276 9.39214L16.9992 18.4106C16.986 18.967 16.5115 19.394 15.958 19.3811C15.4176 19.3681 14.9958 18.9411 14.9695 18.4106L14.6927 9.39214C14.6663 8.69343 15.2331 8.11118 15.9448 8.09824C16.6565 8.07236 17.2496 8.62874 17.2628 9.32745C17.276 9.35332 17.276 9.3792 17.276 9.39214Z" fill="#FF881A"/>
<path d="M15.9975 23.638C16.8346 23.638 17.5132 22.9718 17.5132 22.15C17.5132 21.3282 16.8346 20.662 15.9975 20.662C15.1604 20.662 14.4818 21.3282 14.4818 22.15C14.4818 22.9718 15.1604 23.638 15.9975 23.638Z" fill="#FF881A"/>
</svg>
