<svg width="46" height="53" viewBox="0 0 46 53" fill="none" xmlns="http://www.w3.org/2000/svg">
<path d="M41.5965 9.126H37.4222V4.31837C37.4222 2.35651 35.8133 0.782715 33.8565 0.782715H3.98359C2.02685 0.782715 0.417969 2.37807 0.417969 4.31837V40.8822C0.417969 42.8441 2.02685 44.4179 3.98359 44.4179H8.15797V49.2255C8.15797 51.1873 9.76685 52.7612 11.7236 52.7612H41.5531C43.5315 52.7612 45.1187 51.1658 45.1187 49.2255V12.6617C45.1622 10.7214 43.5533 9.126 41.5965 9.126ZM3.98359 41.1194C3.85314 41.1194 3.74443 41.0116 3.74443 40.8822V4.31837C3.74443 4.18902 3.85314 4.08122 3.98359 4.08122H33.813C33.9435 4.08122 34.0522 4.18902 34.0522 4.31837V9.126H11.7453C9.76685 9.126 8.17972 10.7214 8.17972 12.6617V41.1194H3.98359ZM41.8357 49.2255C41.8357 49.3548 41.727 49.4626 41.5965 49.4626H11.7453C11.6149 49.4626 11.5062 49.3548 11.5062 49.2255V12.6617C11.5062 12.5323 11.6149 12.4245 11.7453 12.4245H41.5748C41.7052 12.4245 41.814 12.5323 41.814 12.6617V49.2255H41.8357Z" fill="#212121"/>
<path d="M36.3354 16.6729H16.9202C16.007 16.6729 15.2461 17.4059 15.2461 18.3329C15.2461 19.2599 16.007 19.9714 16.9202 19.9714H36.3137C37.2268 19.9714 37.9878 19.2384 37.9878 18.3113C37.9878 17.3843 37.2486 16.6729 36.3354 16.6729Z" fill="#212121"/>
<path d="M36.3354 25.1216H16.9202C16.007 25.1216 15.2461 25.8546 15.2461 26.7816C15.2461 27.7086 15.9853 28.4416 16.9202 28.4416H36.3137C37.2268 28.4416 37.9878 27.7086 37.9878 26.7816C37.9878 25.8546 37.2486 25.1216 36.3354 25.1216Z" fill="#212121"/>
<path d="M36.3354 33.5747H16.9202C16.007 33.5747 15.2461 34.3077 15.2461 35.2347C15.2461 36.1402 15.9853 36.8948 16.9202 36.8948H36.3137C37.2268 36.8948 37.9878 36.1618 37.9878 35.2347C37.9878 34.3293 37.2486 33.5747 36.3354 33.5747Z" fill="#212121"/>
<path d="M36.3354 42.0469H16.9202C16.007 42.0469 15.2461 42.7799 15.2461 43.7069C15.2461 44.6339 15.9853 45.3669 16.9202 45.3669H36.3137C37.2268 45.3669 37.9878 44.6339 37.9878 43.7069C37.9878 42.7799 37.2486 42.0469 36.3354 42.0469Z" fill="#212121"/>
</svg>
