<svg width="11" height="12" viewBox="0 0 11 12" fill="none" xmlns="http://www.w3.org/2000/svg">
<path d="M10.4365 4.72078H10.2398V3.02525C10.2398 2.92144 10.1994 2.82752 10.1238 2.75338L7.31919 0.103808C7.24857 0.0395458 7.15273 0 7.05689 0H1.4023C0.948317 0 0.580087 0.360855 0.580087 0.805745V4.72078H0.383362C0.171504 4.72078 0 4.88885 0 5.09646V9.05104C0 9.25866 0.171504 9.42673 0.383362 9.42673H0.580087V10.4846C0.580087 10.9295 0.948317 11.2903 1.4023 11.2903H9.41759C9.87157 11.2903 10.2398 10.9295 10.2398 10.4846V9.42673H10.4365C10.6484 9.42673 10.8199 9.25866 10.8199 9.05104V5.09646C10.8199 4.88885 10.6484 4.72078 10.4365 4.72078ZM0.766724 8.67536V5.47215H10.0532V8.67536H0.766724ZM7.32928 1.15671L9.15025 2.87696H7.32928V1.15671ZM1.34681 0.805745C1.34681 0.776086 1.37203 0.75137 1.4023 0.75137H6.56255V3.25264C6.56255 3.46026 6.73406 3.62833 6.94592 3.62833H9.47812V4.72078H1.34681V0.805745ZM9.47308 10.4846C9.47308 10.5142 9.44786 10.539 9.41759 10.539H1.4023C1.37203 10.539 1.34681 10.5142 1.34681 10.4846V9.42673H9.47308V10.4846Z" fill="#353535"/>
<path d="M3.55114 5.97141H2.74407V8.02285H3.19805V7.38023H3.55114C3.96982 7.38023 4.2876 7.0787 4.2876 6.67335C4.29265 6.27295 3.97486 5.97141 3.55114 5.97141ZM3.53097 6.97489H3.20309V6.38664H3.53097C3.71256 6.38664 3.82858 6.51023 3.82858 6.68324C3.82858 6.85625 3.71256 6.97489 3.53097 6.97489Z" fill="#353535"/>
<path d="M5.39733 5.97141H4.60539V8.02285H5.39733C6.01273 8.02285 6.45662 7.58785 6.45662 6.99466C6.46167 6.40147 6.01778 5.97141 5.39733 5.97141ZM5.38725 7.61256H5.05937V6.38664H5.38725C5.74539 6.38664 5.9976 6.63875 5.9976 6.9996C5.9976 7.35552 5.74539 7.61256 5.38725 7.61256Z" fill="#353535"/>
<path d="M6.82485 8.02285H7.27379V7.23688H7.99512V6.83648H7.27379V6.38664H8.07583V5.97141H6.82485V8.02285Z" fill="#353535"/>
</svg>
