<svg width="40" height="40" viewBox="0 0 40 40" fill="none" xmlns="http://www.w3.org/2000/svg">
<path d="M20.0083 0C8.97553 0 0 8.97553 0 20.0083C0 31.0411 8.97553 40 20.0083 40C31.0411 40 40 31.0245 40 20.0083C40 8.99212 31.0245 0 20.0083 0ZM20.0083 37.4782C10.3691 37.4782 2.53837 29.6474 2.53837 20.0083C2.53837 10.3691 10.3691 2.53837 20.0083 2.53837C29.6474 2.53837 37.4782 10.3691 37.4782 20.0083C37.4782 29.6309 29.6309 37.4782 20.0083 37.4782Z" fill="#333333"/>
<path d="M29.6963 18.7308H21.2683V10.3028C21.2683 9.60598 20.7042 9.0419 20.0074 9.0419C19.3106 9.0419 18.7465 9.60598 18.7465 10.3028V18.7308H10.3019C9.6051 18.7308 9.04102 19.2949 9.04102 19.9917C9.04102 20.6885 9.6051 21.2526 10.3019 21.2526H18.7299V29.6806C18.7299 30.3774 19.294 30.9415 19.9908 30.9415C20.6876 30.9415 21.2517 30.3774 21.2517 29.6806V21.2526H29.6798C30.3766 21.2526 30.9406 20.6885 30.9406 19.9917C30.9572 19.2949 30.3932 18.7308 29.6963 18.7308Z" fill="#333333"/>
</svg>
