<svg width="27" height="28" viewBox="0 0 27 28" fill="none" xmlns="http://www.w3.org/2000/svg">
<path d="M13.4941 0.782715C6.04989 0.782715 0 6.83261 0 14.2768C0 21.721 6.04989 27.7709 13.4941 27.7709C20.9383 27.7709 26.9882 21.721 26.9882 14.2768C26.9882 6.83261 20.9383 0.782715 13.4941 0.782715ZM13.4941 26.0694C6.99519 26.0694 1.70153 20.7757 1.70153 14.2768C1.70153 7.7779 6.99519 2.48425 13.4941 2.48425C19.993 2.48425 25.2867 7.7779 25.2867 14.2768C25.2867 20.7757 20.0048 26.0694 13.4941 26.0694Z" fill="#212121"/>
<path d="M13.3884 18.4126C12.9984 18.4126 12.6794 18.5426 12.4076 18.8025C12.1477 19.0625 12.0059 19.3815 12.0059 19.7596C12.0059 20.185 12.1477 20.5159 12.4194 20.7522C12.6912 20.9885 13.0102 21.1067 13.3765 21.1067C13.731 21.1067 14.0501 20.9885 14.31 20.7404C14.5818 20.5041 14.7118 20.1732 14.7118 19.7478C14.7118 19.3697 14.5818 19.0507 14.3218 18.7907C14.0855 18.5426 13.7665 18.4126 13.3884 18.4126Z" fill="#212121"/>
<path d="M15.9166 7.93173C15.2431 7.61269 14.475 7.44727 13.6006 7.44727C12.6671 7.44727 11.84 7.63632 11.131 8.02626C10.422 8.41619 9.89032 8.90066 9.52401 9.47965C9.16953 10.0705 8.98047 10.6495 8.98047 11.2166C8.98047 11.4884 9.09863 11.7484 9.32314 11.9847C9.55946 12.221 9.84305 12.3392 10.1739 12.3392C10.7411 12.3392 11.131 11.9965 11.3437 11.323C11.5564 10.6731 11.8282 10.1768 12.1354 9.84595C12.4426 9.5151 12.9389 9.34967 13.6006 9.34967C14.1678 9.34967 14.6286 9.5151 14.9831 9.84595C15.3376 10.1768 15.5148 10.5786 15.5148 11.063C15.5148 11.3112 15.4557 11.5357 15.3376 11.7484C15.2194 11.9611 15.0776 12.1501 14.9004 12.3274C14.7231 12.5046 14.4514 12.7527 14.0614 13.0954C13.6242 13.4853 13.2697 13.8162 13.0098 14.088C12.7498 14.3716 12.5371 14.6906 12.3835 15.0687C12.2299 15.435 12.1472 15.8722 12.1472 16.3803C12.1472 16.7821 12.2536 17.0893 12.4662 17.2902C12.6789 17.491 12.9389 17.5974 13.2579 17.5974C13.8606 17.5974 14.215 17.2902 14.3332 16.6639C14.4041 16.3685 14.4514 16.1676 14.4868 16.0495C14.5223 15.9313 14.5695 15.8131 14.6286 15.695C14.6877 15.5768 14.7822 15.4468 14.9004 15.305C15.0185 15.1632 15.184 14.9978 15.3967 14.8088C16.1411 14.147 16.6492 13.6744 16.9328 13.3908C17.2164 13.1072 17.4645 12.7764 17.6772 12.3983C17.8899 12.0083 17.9844 11.5593 17.9844 11.0512C17.9844 10.4013 17.8072 9.79869 17.4409 9.24333C17.11 8.68797 16.5901 8.25077 15.9166 7.93173Z" fill="#212121"/>
</svg>
