<svg width="12" height="10" viewBox="0 0 12 10" fill="none" xmlns="http://www.w3.org/2000/svg">
<path d="M6.83076 0C4.05654 0 1.78627 2.12838 1.66652 4.78282L0.648642 3.8417C0.498954 3.69691 0.254463 3.70174 0.104775 3.85135C-0.0399237 4.00097 -0.0349341 4.23263 0.114754 4.37741L1.81122 5.95077C1.88606 6.01834 1.98087 6.05212 2.07567 6.05212C2.17546 6.05212 2.27026 6.01351 2.34511 5.94112L3.97172 4.36776C4.12141 4.22297 4.12141 3.98649 3.97172 3.8417C3.82203 3.69691 3.57754 3.69691 3.42785 3.8417L2.42993 4.80695C2.53471 2.54826 4.46569 0.738417 6.82577 0.738417C9.25072 0.738417 11.2266 2.64961 11.2266 4.99517C11.2266 7.34073 9.25072 9.25193 6.82577 9.25193C5.93762 9.25193 5.0844 8.99614 4.35093 8.51834C4.17629 8.40251 3.93679 8.44595 3.81704 8.61487C3.69729 8.78378 3.7422 9.01544 3.91683 9.13127C4.77504 9.69595 5.77796 9.99517 6.82078 9.99517C9.66985 9.99517 11.99 7.75097 11.99 4.99517C11.99 2.23938 9.67983 0 6.83076 0Z" fill="white"/>
</svg>
