<svg width="30" height="22" viewBox="0 0 30 22" fill="none" xmlns="http://www.w3.org/2000/svg">
<path d="M12 9.5001H7.6515L7.653 9.4866C7.84886 8.52755 8.23219 7.61662 8.781 6.8061C9.59768 5.60283 10.7432 4.65984 12.081 4.0896C12.534 3.8976 13.0065 3.7506 13.488 3.6531C14.4868 3.45059 15.5162 3.45059 16.515 3.6531C17.9505 3.94724 19.2677 4.65722 20.3025 5.6946L22.4265 3.5766C21.4692 2.61906 20.3366 1.85466 19.0905 1.3251C18.455 1.05605 17.7942 0.851031 17.118 0.713101C15.7228 0.429617 14.2847 0.429617 12.8895 0.713101C12.2128 0.851602 11.5515 1.05712 10.9155 1.3266C9.04129 2.12176 7.4369 3.44174 6.2955 5.1276C5.52733 6.26438 4.99015 7.54109 4.7145 8.8851C4.6725 9.0876 4.65 9.2946 4.62 9.5001H0L6 15.5001L12 9.5001ZM18 12.5001H22.3485L22.347 12.5121C21.9551 14.4347 20.8218 16.1257 19.1925 17.2191C18.3822 17.7684 17.4712 18.1517 16.512 18.3471C15.5137 18.5496 14.4848 18.5496 13.4865 18.3471C12.5275 18.1512 11.6165 17.7679 10.806 17.2191C10.4079 16.9498 10.0363 16.6435 9.696 16.3041L7.575 18.4251C8.53276 19.3824 9.66589 20.1463 10.9125 20.6751C11.5485 20.9451 12.213 21.1506 12.885 21.2871C14.2797 21.5707 15.7173 21.5707 17.112 21.2871C19.8008 20.729 22.1659 19.1442 23.7045 16.8696C24.4719 15.7337 25.0086 14.458 25.284 13.1151C25.3245 12.9126 25.3485 12.7056 25.3785 12.5001H30L24 6.5001L18 12.5001Z" fill="#979797"/>
</svg>

