<svg width="26" height="25" viewBox="0 0 26 25" fill="none" xmlns="http://www.w3.org/2000/svg">
<path fill-rule="evenodd" clip-rule="evenodd" d="M20.6129 10.7854C23.5806 10.7854 26 13.0569 26 15.8432C26 17.196 25.4194 18.4377 24.4839 19.3463V23.3946C24.4839 24.0306 23.9355 24.5556 23.2473 24.5556H1.23656C0.55914 24.5556 0 24.0407 0 23.3946V6.60595C0 6.42423 0.0537634 6.25261 0.129032 6.10118C0.16129 6.03051 0.193548 5.95984 0.236559 5.88917L3.49462 1.37653C3.64516 1.15443 3.91398 1.02319 4.19355 1.02319H19.7204C19.9892 1.02319 20.2366 1.13424 20.3979 1.32606L24.2151 5.89927C24.2204 5.90432 24.2231 5.90936 24.2258 5.91441C24.2285 5.91946 24.2312 5.92451 24.2366 5.92956C24.2473 5.93965 24.2554 5.95227 24.2634 5.96489C24.2715 5.97751 24.2796 5.99013 24.2903 6.00022L24.3226 6.0608C24.4194 6.22232 24.4731 6.40404 24.4731 6.60595V8.88751C24.4731 9.32161 24.0968 9.68504 23.6237 9.68504C23.1613 9.68504 22.7742 9.3317 22.7742 8.88751V7.04005H15.4946V10.3614H8.50538L8.51613 7.04005H1.70968V22.9504H22.7742V20.4669C22.1075 20.7496 21.3763 20.901 20.6022 20.901C19.5161 20.901 18.4731 20.5982 17.5806 20.0227C17.1936 19.7804 17.086 19.2757 17.3548 18.9122C17.6129 18.5488 18.1505 18.4478 18.5376 18.7002C19.1505 19.094 19.8602 19.2959 20.6022 19.2959C22.6344 19.2959 24.2796 17.7513 24.2796 15.8432C24.2796 13.9352 22.6344 12.3906 20.6022 12.3906C19.1828 12.3906 17.9462 13.1579 17.3333 14.2784C17.6344 14.1674 18 14.228 18.2473 14.4602C18.5806 14.7731 18.5806 15.2779 18.2473 15.5908L16.7097 17.0345C16.5484 17.1859 16.3226 17.2667 16.1075 17.2667C15.8925 17.2667 15.6774 17.196 15.5161 17.0446L13.914 15.6009C13.5806 15.2981 13.5699 14.7933 13.8925 14.4703C14.2151 14.1573 14.7527 14.1472 15.0968 14.4501L15.3763 14.6924C15.9355 12.4512 18.0645 10.7854 20.6129 10.7854ZM10.2151 8.75627H13.7957V7.04005H10.2151V8.75627ZM10.7634 2.61827L10.3333 5.43488H13.6344L13.043 2.61827H10.7634ZM15.3656 5.43488H21.6774L19.3118 2.61827H14.7849L15.3656 5.43488ZM9.03226 2.62836H4.64516L2.62366 5.44498H8.60215L9.03226 2.62836ZM3.42985 19.4977H7.60189V21.1029H3.42985V19.4977Z" fill="#4D4D4D"/>
</svg>
