<svg width="24" height="24" viewBox="0 0 24 24" fill="none" xmlns="http://www.w3.org/2000/svg">
<path d="M23.7 22.68L16.87 15.79C18.3 14.12 19.17 11.95 19.17 9.58C19.16 4.3 14.86 0 9.58 0C4.3 0 0 4.3 0 9.58C0 14.86 4.3 19.16 9.58 19.16C11.93 19.16 14.09 18.31 15.76 16.89L22.59 23.77C22.74 23.92 22.94 24 23.14 24C23.34 24 23.54 23.92 23.69 23.77C24 23.48 24 22.99 23.7 22.68ZM1.56 9.58C1.56 5.16 5.16 1.56 9.58 1.56C14 1.56 17.6 5.16 17.6 9.58C17.6 14 14 17.6 9.58 17.6C5.16 17.6 1.56 14 1.56 9.58Z" fill="#212121"/>
</svg>
