<svg width="19" height="19" viewBox="0 0 19 19" fill="none" xmlns="http://www.w3.org/2000/svg">
<path d="M18.8405 9.45149C18.7288 9.23826 16.0255 4.15002 10.1049 4.15002C4.19925 4.15002 1.22779 9.2162 1.10119 9.42944L0.959694 9.68679L1.0863 9.95149C1.19056 10.1721 3.77475 15.4 9.96342 15.4C16.1521 15.4 18.7363 10.1721 18.8405 9.95149L18.9597 9.7015L18.8405 9.45149ZM9.96342 14.275C5.18973 14.275 2.82895 10.7456 2.24807 9.73091C2.91087 8.75297 5.57699 5.26767 10.1049 5.26767C14.685 5.26767 17.1053 8.73826 17.6862 9.7162C17.1202 10.7088 14.7669 14.275 9.96342 14.275Z" fill="#101010"/>
<path d="M9.96342 6.2162C8.01224 6.2162 6.43342 7.78238 6.43342 9.7015C6.43342 11.6206 8.01969 13.1868 9.96342 13.1868C11.9071 13.1868 13.4934 11.6206 13.4934 9.7015C13.4934 7.78238 11.9146 6.2162 9.96342 6.2162ZM9.96342 12.0765C8.63781 12.0765 7.5654 11.0103 7.5654 9.70885C7.5654 8.40002 8.64525 7.3412 9.96342 7.3412C11.2816 7.3412 12.3614 8.40738 12.3614 9.70885C12.3689 11.0177 11.289 12.0765 9.96342 12.0765Z" fill="#101010"/>
</svg>
