<?xml version="1.0" encoding="utf-8"?>
<!-- Generator: Adobe Illustrator 25.4.1, SVG Export Plug-In . SVG Version: 6.00 Build 0)  -->
<svg version="1.1" id="Layer_1" xmlns="http://www.w3.org/2000/svg" xmlns:xlink="http://www.w3.org/1999/xlink" x="0px" y="0px"
	 viewBox="0 0 17 19" style="enable-background:new 0 0 17 19;" xml:space="preserve">
<style type="text/css">
	.st0{fill:#212121;}
</style>
<path class="st0" d="M15.1,0H1.9C1.1,0,0.5,0.6,0.5,1.4v16c0,0.8,0.6,1.4,1.4,1.4h13.2c0.8,0,1.4-0.6,1.4-1.4v-16
	C16.5,0.6,15.9,0,15.1,0z M15.1,17.5H1.9v-16h13.2V17.5z"/>
<path class="st0" d="M7.4,9.7h5.3c0.4,0,0.7-0.3,0.7-0.7c0-0.4-0.3-0.7-0.7-0.7H7.4C7,8.3,6.7,8.6,6.7,9C6.7,9.4,7,9.7,7.4,9.7z"/>
<path class="st0" d="M7.4,13h5.3c0.4,0,0.7-0.3,0.7-0.7s-0.3-0.7-0.7-0.7H7.4c-0.4,0-0.7,0.3-0.7,0.7S7,13,7.4,13z"/>
<path class="st0" d="M4,13c0.1,0.1,0.2,0.1,0.3,0.1c0.1,0,0.2,0,0.3-0.1l0.2-0.2L5,13c0.1,0.1,0.2,0.1,0.3,0.1c0.1,0,0.2,0,0.3-0.1
	c0.1-0.1,0.1-0.4,0-0.5l-0.2-0.2l0.2-0.2c0.1-0.1,0.1-0.4,0-0.5c-0.1-0.1-0.4-0.1-0.5,0l-0.2,0.2l-0.2-0.2c-0.1-0.1-0.4-0.1-0.5,0
	c-0.1,0.1-0.1,0.4,0,0.5l0.2,0.2L4,12.5C3.9,12.7,3.9,12.9,4,13z"/>
<path class="st0" d="M4,9.7c0.1,0.1,0.2,0.1,0.3,0.1c0.1,0,0.2,0,0.3-0.1l0.2-0.2L5,9.7C5,9.8,5.1,9.8,5.2,9.8c0.1,0,0.2,0,0.3-0.1
	c0.1-0.1,0.1-0.4,0-0.5L5.3,9l0.2-0.2c0.1-0.1,0.1-0.4,0-0.5C5.3,8.1,5.1,8.1,5,8.3L4.8,8.5L4.5,8.3C4.4,8.1,4.2,8.1,4,8.3
	C3.9,8.4,3.9,8.7,4,8.8L4.2,9L4,9.2C3.9,9.4,3.9,9.6,4,9.7z"/>
<path class="st0" d="M7.4,6.4h5.3c0.4,0,0.7-0.3,0.7-0.7c0-0.4-0.3-0.7-0.7-0.7H7.4C7,5,6.7,5.3,6.7,5.7C6.7,6.1,7,6.4,7.4,6.4z"/>
<path class="st0" d="M4,6.4c0.1,0.1,0.2,0.1,0.3,0.1c0.1,0,0.2,0,0.3-0.1l0.2-0.2L5,6.4C5,6.5,5.1,6.5,5.2,6.5c0.1,0,0.2,0,0.3-0.1
	c0.1-0.1,0.1-0.4,0-0.5L5.3,5.7l0.2-0.2c0.1-0.1,0.1-0.4,0-0.5C5.3,4.8,5.1,4.8,5,5L4.8,5.2L4.5,5C4.4,4.8,4.2,4.8,4,5
	C3.9,5.1,3.9,5.3,4,5.5l0.2,0.2L4,5.9C3.9,6.1,3.9,6.3,4,6.4z"/>
</svg>
