<svg width="17" height="19" viewBox="0 0 17 19" fill="none" xmlns="http://www.w3.org/2000/svg">
<path d="M14.6171 0H1.43184C0.641255 0 0 0.641255 0 1.43184V17.4632C0 18.2538 0.641255 18.8951 1.43184 18.8951H14.6171C15.4077 18.8951 16.0489 18.2538 16.0489 17.4632V1.43184C16.0489 0.641255 15.4077 0 14.6171 0ZM14.6171 17.4632H1.43184V1.43184H14.6171V17.4632Z" fill="#212121"/>
<path d="M6.9586 9.73299H12.2468C12.642 9.73299 12.9671 9.40797 12.9671 9.01267C12.9671 8.61738 12.642 8.29236 12.2468 8.29236H6.9586C6.5633 8.29236 6.23828 8.61738 6.23828 9.01267C6.23828 9.40797 6.5633 9.73299 6.9586 9.73299Z" fill="#212121"/>
<path d="M6.9586 13.0361H12.2468C12.642 13.0361 12.9671 12.7111 12.9671 12.3158C12.9671 11.9205 12.642 11.5955 12.2468 11.5955H6.9586C6.5633 11.5955 6.23828 11.9205 6.23828 12.3158C6.23828 12.7111 6.5633 13.0361 6.9586 13.0361Z" fill="#212121"/>
<path d="M3.55072 13.0446C3.621 13.1148 3.70884 13.15 3.80547 13.15C3.89331 13.15 3.98994 13.1148 4.06021 13.0446L4.27982 12.825L4.49943 13.0446C4.5697 13.1148 4.65755 13.15 4.75418 13.15C4.8508 13.15 4.93865 13.1148 5.00892 13.0446C5.14947 12.904 5.14947 12.6756 5.00892 12.5351L4.78931 12.3155L5.00892 12.0959C5.14947 11.9553 5.14947 11.7269 5.00892 11.5864C4.86837 11.4458 4.63998 11.4458 4.49943 11.5864L4.27982 11.806L4.06021 11.5864C3.91967 11.4458 3.69127 11.4458 3.55072 11.5864C3.41018 11.7269 3.41018 11.9553 3.55072 12.0959L3.77033 12.3155L3.55072 12.5351C3.41018 12.6844 3.41018 12.9128 3.55072 13.0446Z" fill="#212121"/>
<path d="M3.55072 9.74183C3.621 9.8121 3.70884 9.84724 3.80547 9.84724C3.89331 9.84724 3.98994 9.8121 4.06021 9.74183L4.27982 9.52222L4.49943 9.74183C4.5697 9.8121 4.65755 9.84724 4.75418 9.84724C4.8508 9.84724 4.93865 9.8121 5.00892 9.74183C5.14947 9.60128 5.14947 9.37289 5.00892 9.23234L4.78931 9.01273L5.00892 8.79312C5.14947 8.65258 5.14947 8.42418 5.00892 8.28363C4.86837 8.14309 4.63998 8.14309 4.49943 8.28363L4.27982 8.50324L4.06021 8.28363C3.91967 8.14309 3.69127 8.14309 3.55072 8.28363C3.41018 8.42418 3.41018 8.65258 3.55072 8.79312L3.77033 9.01273L3.55072 9.23234C3.41018 9.37289 3.41018 9.60128 3.55072 9.74183Z" fill="#212121"/>
<path d="M6.9586 6.42128H12.2468C12.642 6.42128 12.9671 6.09626 12.9671 5.70097C12.9671 5.30567 12.642 4.98065 12.2468 4.98065H6.9586C6.5633 4.98944 6.23828 5.31446 6.23828 5.70975C6.23828 6.10504 6.5633 6.42128 6.9586 6.42128Z" fill="#212121"/>
<path d="M3.55072 6.43891C3.621 6.50918 3.70884 6.54432 3.80547 6.54432C3.89331 6.54432 3.98994 6.50918 4.06021 6.43891L4.27982 6.2193L4.49943 6.43891C4.5697 6.50918 4.65755 6.54432 4.75418 6.54432C4.8508 6.54432 4.93865 6.50918 5.00892 6.43891C5.14947 6.29836 5.14947 6.06997 5.00892 5.92942L4.78931 5.70981L5.00892 5.48142C5.14947 5.34087 5.14947 5.11248 5.00892 4.97193C4.86837 4.83138 4.63998 4.83138 4.49943 4.97193L4.27982 5.20032L4.06021 4.98071C3.91967 4.84016 3.69127 4.84016 3.55072 4.98071C3.41018 5.12126 3.41018 5.34965 3.55072 5.4902L3.77912 5.70981L3.55072 5.92942C3.41018 6.06997 3.41018 6.29836 3.55072 6.43891Z" fill="#212121"/>
</svg>
