<svg width="13" height="13" viewBox="0 0 13 13" fill="none" xmlns="http://www.w3.org/2000/svg">
<path d="M12.0338 1.96823H8.643V0.418317C8.643 0.187706 8.45251 0 8.21847 0H4.23442C4.00038 0 3.81533 0.187706 3.81533 0.418317V1.96823H0.42453C0.190494 1.96823 0 2.15058 0 2.38119C0 2.6118 0.190494 2.7995 0.42453 2.7995H1.32802V10.8494C1.32802 12.0347 2.3077 13 3.51054 13H8.94779C10.1506 13 11.1303 12.0347 11.1303 10.8494V2.7995H12.0338C12.2678 2.7995 12.4583 2.6118 12.4583 2.38119C12.4583 2.15058 12.2678 1.96823 12.0338 1.96823ZM4.65895 0.831271H7.80483V1.96823H4.65895V0.831271ZM10.2867 10.8494C10.2867 11.5788 9.68256 12.1687 8.94779 12.1687H3.51054C2.77033 12.1687 2.17164 11.5734 2.17164 10.8494V2.7995H10.2867V10.8494Z" fill="#212121"/>
<path d="M4.23442 3.4967C4.00038 3.4967 3.80989 3.68441 3.80989 3.91502V10.946C3.80989 11.1766 4.00038 11.3643 4.23442 11.3643C4.46845 11.3643 4.65895 11.1766 4.65895 10.946V3.90965C4.65895 3.67904 4.46845 3.4967 4.23442 3.4967Z" fill="#212121"/>
<path d="M7.79938 3.90965V10.9406C7.79938 11.1712 7.98988 11.3589 8.22391 11.3589C8.45795 11.3589 8.64845 11.1712 8.64845 10.9406V3.90965C8.64845 3.67904 8.45795 3.49134 8.22391 3.49134C7.98988 3.4967 7.79938 3.67904 7.79938 3.90965Z" fill="#212121"/>
<path d="M6.22644 3.4967C5.99241 3.4967 5.80191 3.68441 5.80191 3.91502V10.946C5.80191 11.1766 5.99241 11.3643 6.22644 11.3643C6.46048 11.3643 6.65098 11.1766 6.65098 10.946V3.90965C6.65098 3.67904 6.46048 3.4967 6.22644 3.4967Z" fill="#212121"/>
</svg>
