<svg width="28" height="28" viewBox="0 0 28 28" fill="none" xmlns="http://www.w3.org/2000/svg">
<path d="M8.88261 9.50818C10.3668 9.50818 11.5791 8.29 11.5791 6.79858C11.5791 5.30716 10.3668 4.10037 8.88261 4.10037C7.39839 4.10037 6.1861 5.31855 6.1861 6.80996C6.1861 8.30138 7.39839 9.50818 8.88261 9.50818ZM8.88261 5.89918C9.38112 5.89918 9.78899 6.30903 9.78899 6.80996C9.78899 7.3109 9.38112 7.72075 8.88261 7.72075C8.38409 7.72075 7.97622 7.3109 7.97622 6.80996C7.97622 6.30903 8.38409 5.89918 8.88261 5.89918Z" fill="#4D4D4D"/>
<path d="M25.8434 14.4378H25.5715L23.1809 10.0547C22.7957 9.34879 22.0592 8.90478 21.2548 8.90478H17.7652V7.52721C17.7652 6.53673 16.9608 5.7284 15.9751 5.7284H14.4002C13.9244 3.23512 11.817 1.33384 9.23383 1.16307C7.67031 1.06061 6.17477 1.60708 5.03046 2.68864C4.16939 3.49697 3.59156 4.56715 3.36497 5.7284H1.79012C0.80442 5.7284 0 6.52534 0 7.52721V22.2934C0 23.2839 0.80442 24.0922 1.79012 24.0922H3.38763C3.65954 25.447 4.83785 26.4716 6.26541 26.4716C7.69297 26.4716 8.8826 25.447 9.14319 24.0922H15.9638C15.9864 24.0922 15.9978 24.0922 16.0204 24.0922H18.547C18.8189 25.447 19.9972 26.4716 21.4248 26.4716C22.8523 26.4716 24.042 25.447 24.3025 24.0922H25.8661C26.8404 24.0922 27.6222 23.2953 27.6222 22.3275V16.248C27.6448 15.2462 26.8291 14.4378 25.8434 14.4378ZM6.25408 3.9979C6.96786 3.31481 7.89691 2.95049 8.88261 2.95049C8.96191 2.95049 9.05255 2.95049 9.13186 2.96188C11.0239 3.07573 12.5988 4.65822 12.7121 6.5595C12.7461 7.12874 12.6668 7.6866 12.4628 8.2103C12.3042 8.62016 12.0323 9.03001 11.6697 9.40572L8.88261 12.2633L6.12945 9.40572C5.47232 8.72262 5.0871 7.88014 5.04178 7.00351C5.04178 6.9352 5.04178 6.86689 5.04178 6.79858C5.04178 5.7284 5.47232 4.73792 6.25408 3.9979ZM8.93925 22.2934C8.47473 21.2687 7.45504 20.5629 6.26541 20.5629C5.07577 20.5629 4.05609 21.2687 3.59156 22.2934H1.79012V7.52721H3.29699C3.45561 8.67708 3.98811 9.78142 4.83785 10.6694L7.76095 13.7092C8.05553 14.0166 8.45207 14.1874 8.87128 14.1874C9.29048 14.1874 9.68703 14.0166 9.9816 13.7206L12.9387 10.6808C13.4712 10.1343 13.8677 9.51956 14.117 8.88201C14.2983 8.42662 14.4002 7.98261 14.4569 7.52721H15.9638V22.2934H8.93925ZM21.2548 10.7036C21.4021 10.7036 21.5381 10.7833 21.606 10.9199L23.5208 14.4378H17.7539V10.7036H21.2548ZM25.8547 22.2934H24.1099C23.6454 21.2687 22.6257 20.5629 21.4361 20.5629C20.2464 20.5629 19.2268 21.2687 18.7622 22.2934H17.8105V16.2366L25.8434 16.248V22.2934H25.8547Z" fill="#4D4D4D"/>
</svg>
