<svg width="22" height="26" viewBox="0 0 22 26" fill="none" xmlns="http://www.w3.org/2000/svg">
<path d="M11.5513 0.780772C11.3541 0.589846 11.1131 0.5 10.8612 0.5C10.6093 0.5 10.3464 0.601078 10.1601 0.803234L4.95702 6.13792C4.57363 6.531 4.57363 7.18239 4.95702 7.58671C5.34041 7.97979 5.97574 7.97979 6.37008 7.58671L9.98488 3.8805L9.98487 17.5148C9.98487 18.0764 10.434 18.5368 10.9817 18.5368C11.5294 18.5368 11.9675 18.0764 11.9675 17.5148L11.9675 4.01528L15.5933 7.58671C15.9876 7.97979 16.612 7.95733 16.9954 7.55301C17.3788 7.1487 17.3678 6.49731 16.9625 6.11546L11.5513 0.780772Z" fill="white"/>
<path d="M20.9198 17.5036C20.3721 17.5036 19.923 17.9641 19.923 18.5256V23.4672H2.03524V18.8064C2.03524 18.2448 1.58613 17.7844 1.03843 17.7844C0.490737 17.7844 0.041626 18.2448 0.041626 18.8064V24.478C0.041626 25.0395 0.490737 25.5 1.03843 25.5H20.9198C21.4675 25.5 21.9166 25.0395 21.9166 24.478V18.5144C21.9166 17.9641 21.4675 17.5036 20.9198 17.5036Z" fill="white"/>
</svg>
