<svg width="20" height="21" viewBox="0 0 20 21" fill="none" xmlns="http://www.w3.org/2000/svg">
<path d="M19.7516 19.8966L14.0595 14.1544C15.2513 12.7626 15.9763 10.9542 15.9763 8.97899C15.968 4.57863 12.3844 0.994995 7.984 0.994995C3.58363 0.994995 0 4.57863 0 8.97899C0 13.3794 3.58363 16.963 7.984 16.963C9.9425 16.963 11.7426 16.2546 13.1344 15.0712L18.8266 20.805C18.9516 20.93 19.1183 20.9967 19.2849 20.9967C19.4516 20.9967 19.6183 20.93 19.7433 20.805C20.0017 20.5633 20.0017 20.1549 19.7516 19.8966ZM1.30011 8.97899C1.30011 5.29535 4.30036 2.2951 7.984 2.2951C11.6676 2.2951 14.6679 5.29535 14.6679 8.97899C14.6679 12.6626 11.6676 15.6629 7.984 15.6629C4.30036 15.6629 1.30011 12.6626 1.30011 8.97899Z" fill="#212121"/>
</svg>
